<?xml version="1.0" encoding="utf-8"?>
<!-- Generator: Adobe Illustrator 24.2.3, SVG Export Plug-In . SVG Version: 6.00 Build 0)  -->
<svg version="1.1" id="Layer_1" xmlns="http://www.w3.org/2000/svg" xmlns:xlink="http://www.w3.org/1999/xlink" x="0px" y="0px"
	 viewBox="0 0 288 288" style="enable-background:new 0 0 288 288;" xml:space="preserve">
<style type="text/css">
	.st0{fill:#A7A9AC;}
	.st1{clip-path:url(#SVGID_2_);}
	.st2{fill:#FFFFFF;}
	.st3{fill:none;stroke:#000000;stroke-miterlimit:10;}
	.st4{fill:none;stroke:#000000;stroke-width:5;stroke-miterlimit:10;}
</style>
<g>
	<circle class="st0" cx="144" cy="144" r="141.14"/>
	<g>
		<defs>
			<circle id="SVGID_1_" cx="145.45" cy="144" r="132.19"/>
		</defs>
		<use xlink:href="#SVGID_1_"  style="overflow:visible;fill:#FFFFFF;"/>
		<clipPath id="SVGID_2_">
			<use xlink:href="#SVGID_1_"  style="overflow:visible;"/>
		</clipPath>
		<g class="st1">
			<path d="M120.42,186.76c0.31-0.33,0.61-0.66,0.92-0.99c-3.08-2.56-3.07-2.98-0.15-5.61c2.52-2.27,5.37-3.7,8.73-4.52
				c1.21-0.29,3.02-0.89,3.88-2.74c0.43-0.92,2.51-1.07,3.84-1.57c0.11,0.26,0.22,0.52,0.33,0.78c-0.35,0.39-0.69,0.79-1.12,1.27
				c1.58,0.17,2.78,0.15,3.6-1.47c0.37-0.72,1.47-1.08,2.56-1.82c0.11,1.95,0.18,3.32,0.25,4.69c0.01,0.15,0.02,0.37-0.07,0.45
				c-2.41,2.11-4.83,4.21-7.25,6.31c-1.78-0.97-3.09,0.39-4.58,0.9c-1.13,0.39-2.48,1.29-3.38,0.97c-2.93-1.03-4.32,0.5-5.73,2.58
				c-0.31,0.45-1.24,0.49-1.88,0.71L120.42,186.76z"/>
			<path d="M178.04,186.02c-0.32-0.32-0.64-0.63-0.96-0.95c2.97-2.68,2.95-3.1-0.08-5.62c-2.61-2.17-5.52-3.48-8.91-4.16
				c-1.23-0.24-3.05-0.76-3.99-2.58c-0.46-0.9-2.55-0.97-3.9-1.41c-0.1,0.26-0.2,0.53-0.3,0.79c0.36,0.38,0.73,0.76,1.17,1.23
				c-1.57,0.23-2.78,0.27-3.66-1.32c-0.39-0.71-1.51-1.02-2.63-1.71c-0.03,1.96-0.05,3.33-0.06,4.69c0,0.15,0,0.37,0.09,0.45
				c2.49,2.01,5,4.01,7.5,6.01c1.74-1.04,3.1,0.26,4.61,0.71c1.14,0.34,2.53,1.19,3.42,0.83c2.89-1.15,4.34,0.32,5.83,2.34
				c0.33,0.44,1.26,0.44,1.91,0.64L178.04,186.02z"/>
			<path d="M120.36,186.71c0.58,1.71,1.87,0.87,2.92,0.79c6.04-0.46,12.07-0.95,18.11-1.35c2.15-0.1,8.35,0.18,1.6,0.77
				c-1.06,1.26,4.61-0.61,4.8,1.62c-6.64,0.45-21.11,0.49-27.94,0.95c0.17-0.81,0.38-1.76,0.58-2.72
				C120.42,186.76,120.36,186.71,120.36,186.71z"/>
			<path d="M147.11,162.57c-2.28,0.1-4.57,0.32-6.85,0.23c-0.55-0.02-1.06-1.02-1.58-1.57c0.62-0.33,1.24-0.94,1.87-0.95
				C142.87,160.27,145.22,160.41,147.11,162.57z"/>
			<path d="M178.18,136.56c3.16,0.38,6.31,0.76,9.84,1.18c-0.31,0.93-0.54,1.64-0.63,1.91c-1.98-0.09-3.71,0.18-5.17-0.34
				C180.74,138.79,179.52,137.5,178.18,136.56C178.18,136.54,178.18,136.56,178.18,136.56z"/>
			<path d="M204.41,123.2c0.91,1.34,0.47,4.23-1.19,7.88C202,129.95,202.5,126.65,204.41,123.2z"/>
			<path d="M170.74,189.52c-3.61-0.39-7.14,0.76-9.41-3.03C164.4,187.48,167.26,188.4,170.74,189.52z"/>
			<path d="M171.57,132.09c-3.72-1-7.44-2-11.15-3.01c0.06-0.21,0.11-0.41,0.17-0.62c3.72,0.98,7.45,1.97,11.17,2.95
				C171.69,131.64,171.63,131.86,171.57,132.09z"/>
			<path d="M156.75,161.46c1.68-0.44,3.37-0.88,5.05-1.32c0.07,0.28,0.15,0.57,0.22,0.85c-1.57,0.85-3.12,1.83-5.04,1.36
				C156.91,162.06,156.83,161.76,156.75,161.46z"/>
			<path d="M185.3,147.96c3.23,0,3.27-0.14,1.62-4.62c0.88,1.21,1.77,2.43,2.75,3.77c-1.13,1.09-2.61,1.53-4.39,0.84
				C185.28,147.96,185.3,147.96,185.3,147.96z"/>
			<path d="M182.67,128.08c2.7-1.41,2.92,0.98,3.93,1.84C185.46,129.39,184.32,128.85,182.67,128.08z"/>
			<path class="st2" d="M150.09,116.13c0.17,0.88,0.39,1.77,0.45,2.66c0.01,0.09-0.9,0.25-1.38,0.37c-0.03-0.98-0.05-1.96-0.08-2.95
				C149.42,116.19,149.76,116.16,150.09,116.13z"/>
			<path d="M150.63,185.67c3.37,0.56,9.68,1.39,10.52,1.57c0.84,0.18,0.4,1.22,1.15,1.47c0.75,0.25,0.24,0.58-0.45,0.49
				s2.31,0.28-2.38-0.36s-5.42-1.04-8.05-1.28c-2.63-0.24-2.95-1.45-2.77-1.66C148.83,185.69,150.63,185.67,150.63,185.67z"/>
			<path d="M98.67,63.45c0.39-0.87,0.9-1.74,1.54-2.59c-0.1,0.08-0.2,0.13-0.29,0.19c-0.77,1.07-1.41,2.05-1.29,2.3
				C98.64,63.38,98.66,63.42,98.67,63.45z"/>
			<g>
				<path d="M98.67,63.45c0.39-0.87,0.9-1.74,1.54-2.59c-0.1,0.08-0.2,0.13-0.29,0.19c-0.77,1.07-1.41,2.05-1.29,2.3
					C98.64,63.38,98.66,63.42,98.67,63.45z"/>
				<path d="M289.47,350.54c-5.97-3.61-10.24-9.15-15.32-13.77c-3.79-3.44-6.02-7.55-7.28-12.37c-0.42-1.59-0.87-3.18-1.38-4.74
					c-1.63-4.99-1.91-9.96-0.16-14.95c0.88-2.51,1.55-5.08,2.32-7.63c-0.09-0.03-0.17-0.07-0.26-0.1c-0.48,1.14-0.97,2.28-1.45,3.42
					c-0.3-0.04-0.27-0.04-0.57-0.08c-0.12-0.86-0.24-1.71-0.4-2.93c-3.24,1.38-4.74-1.36-6.46-3.02c-1.71-1.64-5.58-1.4-4.72-5.2
					c-0.95-0.29-1.71-0.53-2.65-0.82c0.5-0.63,0.83-1.03,1.21-1.51c-1.11-0.38-1.99-0.68-3.18-1.08c1.18-0.63,1.93-1.03,2.68-1.43
					c-0.08-0.36-0.07-0.32-0.16-0.68c-0.84-0.03-1.69-0.09-2.53-0.1c-1.59-0.02-3.1-1.64-2.86-2.91c0.21-1.12,0.29-2.31,0.18-3.45
					c-0.08-0.84-0.55-1.65-0.85-2.47c-0.12,0.82-0.22,1.65-0.36,2.46c-0.02,0.1-0.23,0.17-0.88,0.62c-0.27-1.54-0.5-2.84-0.75-4.27
					c1.28-0.31,2.37-0.57,3.46-0.84c0.07-0.24,0.13-0.48,0.2-0.71c-4.08,0.07-5.61-2.3-5.9-6.05c-0.52,0.82-0.82,1.3-0.98,1.56
					c-1.38-0.64-2.55-1.19-4.26-1.98c1.47-0.49,2.53-0.85,3.51-1.17c0.22-1.01,0.42-1.94,0.62-2.87c-0.14-0.07-0.27-0.14-0.41-0.21
					c-0.58,0.87-1.16,1.73-2.19,3.26c-1.67-3.09-3.09-5.74-4.64-8.6c-0.08,2.34-0.15,4.43-0.23,6.52c-0.3,0.09-0.3,0.09-0.59,0.19
					c-1.1-1.48-2.2-2.96-3.66-4.91c-0.64,2.01-1.19,3.71-1.82,5.66c-1.28-2.22,1.51-5.29-2.14-6.83c0.8-0.48,1.49-0.91,2.16-1.32
					c-1.87-0.49-2.07-0.44-2.82,1.21c-1.05,2.3-2,4.64-3.07,6.92c-0.42,0.9-0.96,1.77-1.62,2.5c-0.28,0.31-1.2,0.46-1.48,0.24
					c-0.7-0.55-1.49-1.26-1.73-2.07c-1.11-3.66-2.08-7.35-3.02-11.06c-0.38-1.49-0.37-3.08-0.82-4.54c-0.94-3.04-0.59-5.75,1.4-8.27
					c0.28-0.36,0.47-0.97,0.38-1.4c-0.55-2.56-1.19-5.1-1.82-7.71c0.52-0.27,1.01-0.51,1.5-0.76c-1.75-0.53-3.45-0.82-5.1-0.64
					c-5.05,0.53-10.07,1.25-15.11,1.85c-0.88,0.1-1.89-0.28-2.65,0.03c-2.21,0.89-3.91,0.56-5.94-1.96c1.94,0.06,3.4,0.1,5.26,0.16
					c-0.53-1.02-0.97-1.85-1.41-2.69c-0.11-0.11-0.28-0.27-0.39-0.38c-0.94-0.49-1.88-0.97-2.88-1.49l-0.23,1.91
					c-1.32-0.63-2.84-1.99-3.75-1.66c-1.67,0.61-3.37,1.94-3.08,4.1c-0.81-0.45-1.56-0.86-2.16-1.2c-0.28-1.61-0.59-3.42-0.9-5.23
					c-0.31,0.06-0.63,0.12-0.94,0.19c0.21,1.28,0.41,2.56,0.67,4.14c-0.8-0.42-1.34-0.71-2.03-1.07c-0.27,0.85-0.48,1.53-0.76,2.41
					c-0.72-0.68-1.25-1.17-1.78-1.67c-0.08,0.06-0.16,0.11-0.23,0.17c0.46,1.01,0.93,2.02,1.39,3.03c-0.15,0.07-0.31,0.14-0.46,0.21
					c-1.28-2.39-2.56-4.78-3.83-7.14c-2.6,0.32-3.31,5.42-6.6,2.28c-0.31,0.76-0.57,1.42-0.84,2.08c-0.6-0.3-1.19-0.6-1.47-0.74
					c-0.76,1.25-1.51,2.48-2.39,3.93c-2.69-3.56-4.15-0.31-6.09,0.61c-0.56-0.54-1.1-1.06-1.35-1.31c-1.97,0.01-3.64,0.01-4.98,0.02
					c-0.57-1.3-0.87-2.47-1.54-3.39c-1.78-2.45-3.71-4.79-5.72-7.34c-0.63-0.17-1.68-0.64-2.77-0.72c-1.83-0.14-3.13-0.91-4.28-2.34
					c-0.56-0.69-1.63-1.09-2.55-1.35c-1.71-0.48-3.35-0.97-4.92-2.85c1.14,0.14,1.64,0.2,2.14,0.26c0.07-0.21,0.13-0.42,0.2-0.63
					c-1.07-0.39-2.25-1.27-3.2-1.07c-1.54,0.32-1.97-0.04-2.52-1.41c-0.41-1.03-1.45-2.36-2.35-2.47c-0.89-0.11-2.11,0.98-2.92,1.8
					c-1.1,1.13-1.71,2.87-2.96,3.67c-1.47,0.94-1.56,1.73-0.72,3.23c-0.86-0.07-1.83-0.12-1.97-0.49c-0.8-2.12-2.76-3.03-4.2-4.5
					c-2.27-2.3-4.47-4.75-6.26-7.44c-3.97-5.96-5.8-12.73-6.68-19.79c-0.33-2.6-1.06-5.18-1.2-7.77c0.58-1.7,0.95-3.56,0.8-4.69
					c-0.24-1.91-0.92-3.4-1.21-6.25c-0.28-2.85-0.87-7.78-1.05-9.52c-0.06-0.53-0.16-1.27-0.27-2.06c0.37-4.45,0.81-8.9,1.41-13.33
					c0.23-1.67,0.88-3.4,1.78-4.83c0.51-0.82,1.91-1.08,3.12-1.7c0.46,1.49,0.97,3.31,1.58,5.11c3.27,9.64,6.01,12.95,16.16,13.21
					c6.67,0.18,13.27-0.35,19.73-2.08c1.56-0.42,2.99-1.33,4.45-2.07c0.72-0.37,1.4-0.84,2.08-1.28c0.49-0.32,0.95-0.69,1.71-1.24
					c-0.93-0.2-1.35-0.29-2-0.43c0.8-1.73,1.55-3.33,2.28-4.94c2.13-4.72,5.15-9.18,5.04-14.6c-0.04-1.96,0.5-2.95,2.28-3.26
					c3.39-0.6,4.78-0.05,5.57,2.17c0.36,1.01,0.32,2.18,0.76,3.14c2.43,5.33,4.74,10.74,7.54,15.88c1.11,2.04,3.1,3.97,5.17,5.03
					c4.79,2.45,10.08,2.25,15.35,1.54c-2.82-0.34-5.64-0.68-8.46-1.01c1.35-0.18,2.65-0.09,3.96-0.04c1.31,0.05,2.62,0.13,3.93,0.06
					c1.46-0.08,2.91-0.31,4.36-0.48l0.02,0c-1.27-0.53-2.94-0.73-3.73-1.66c-1.62-1.93,0.96-3.01,1.6-4.78
					c-0.72-0.51-1.54-0.94-2.14-1.57c-1.02-1.07-1.9-2.26-2.85-3.4l0,0.01c-0.57-0.41-1.22-0.76-1.71-1.25
					c-1.46-1.45-5.03-2.57-6.34-2.14c-1.3,0.42-2.69,0.64-4.06,0.8c-1.02,0.12-2.07,0-3.32-0.02c0.87,0.94,1.52,1.64,2.17,2.34
					c-0.17,0.13-0.34,0.27-0.51,0.4c-1.07-1.46-3.84-1.41-3.23-4.44c0.45-2.24-0.29-2.65-2.74-2.23c0.17,0.8,0.34,1.61,0.51,2.42
					c-0.63-0.2-0.91-0.51-0.95-0.84c-0.23-1.86-0.23-3.77-0.63-5.6c-0.51-2.32,0.18-7.55,0.94-7.29c3.16,1.11,4.15-2.9,6.82-2.56
					c0.15,0.02,0.3,0.08,0.46,0.08c2.76,0.03,5.56,0.34,8.28,0.02c4.4-0.51,8.64-0.39,12.78,1.33c0.74,0.31,1.57,0.47,2.38,0.55
					c0.61,0.06,1.25-0.12,1.87-0.19c-0.02,0.67-0.05,1.34-0.07,2.14c0.57,0.1,1.29,0.22,2.57,0.44c-1.66-2.83-3.07-5.24-4.48-7.66
					c3.84-0.88,6.32,1.41,5.42,5.53c-0.12,0.57,0.02,1.23,0.15,1.82c0.54,2.49,1.12,4.97,1.65,7.34c0.56-0.49,1.54-1.36,2.69-2.37
					c0.15,1.17,0.34,2,0.33,2.84c-0.01,0.83-0.19,1.67-0.34,2.5c-0.09,0.48-0.25,0.96-0.38,1.43c0.23,0.03,0.46,0.06,0.69,0.08
					c1.3-5.77,1.86-11.51-1.04-17.07c1.67-0.28,1.67-0.28,2.24,1.82c1.68,0.77,3.21,1.48,4.72,2.18c0.14-1.14,0.21-2.04,0.36-2.92
					c0.53-3.1-0.03-4.18-3.09-4.76c-6.45-1.23-12.91-2.49-19.42-3.35c-8.46-1.12-16.65-0.27-24.31,4.06
					c-1.47,0.83-3.55,0.73-5.35,0.81c-2.84,0.13-5.74-0.26-8.53,0.14c-2.44,0.35-4.56,0.06-6.71-1.02
					c-4.33-2.17-8.88-3.89-13.76-3.83c-5.94,0.07-11.89,0.48-17.81,1c-3.64,0.32-7.24,1.1-10.86,1.67
					c-0.03-0.13-0.05-0.26-0.08-0.39c0.95-0.33,1.91-0.66,2.82-0.98c-1.63-1.85-0.76-4.09-0.07-5.03c1.9-2.62,1.59-5.69,2.43-8.16
					c0.83-0.06,1.49-0.1,2.15-0.14c-0.2-0.65-0.39-1.3-0.51-1.67c0.51-1.25,0.96-2.35,1.45-3.53c0.46-0.48,1.53-1.1,1.53-1.72
					c-0.02-1.9,0.88-2.8,2.74-3.15c-0.25-0.62-0.44-1.08-0.69-1.69c0.99-0.74,2.04-1.48,3.04-2.29c0.78-0.63,1.6-1.27,2.23-2.04
					c1.52-1.85,2.43-4.4,5.56-4.24c0.39,0.02,0.8-1.14,1.26-1.71c0.35-0.44,0.74-0.92,1.21-1.16c0.49-0.25,1.15-0.15,1.67-0.37
					c1.06-0.46,2.02-1.19,3.11-1.53c3.43-1.08,7.05-1.72,10.32-3.16c2.18-0.97,4.04-1.2,6.18-0.45c0.23,0.08,0.56-0.13,0.85-0.19
					c1.13-0.26,2.3-0.84,3.39-0.72c2,0.21,4.29,1.7,5.85,1.1c2.84-1.11,4.6,1.05,6.94,1.28c3.42,0.34,6.73,1.83,10.1,2.8
					c1.32,0.38,2.88,0.35,3.96,1.06c2.12,1.39,4.11,3.04,5.92,4.82c6.11,5.97,9.15,13.69,11.99,21.51c0.69,1.91,2.13,3.82,2.04,5.67
					c-0.1,2.12,1.3,2.52,2.35,3.09c0.55,0.3,2.62-0.73,2.6-1.04c-0.18-2.14-0.76-4.24-1.15-6.36c-0.13-0.68-0.16-1.4-0.14-2.1
					c0.01-0.79,0.19-1.59,0.17-2.38c-0.02-0.79-0.21-1.57-0.33-2.36c0.73,0.04,1.49-0.01,2.2,0.12c1.31,0.25,2.19,0.46,2.17-1.54
					c-0.01-0.95,1.17-2.02,2-2.84c0.45-0.45,0.96-0.62,1.49-0.67c2.35-2.25-4.94-8.35-1.68-7.89c0.45-0.16,2.25-2.14,2.81-2.19
					c0.75-0.06,1.21-0.77,1.69-1.46c0.49-0.7,1.61-1.66,1.64-2.19l7.23-17.24c-0.69,0.09-1.4,0.12-2.07,0.29
					c-0.24,0.06-0.36,0.6-0.6,0.67c-0.82,0.22-1.78,0.64-2.48,0.39c-0.6-0.21-0.9-1.24-1.44-2.07c0.77-0.23,1-0.38,1.19-0.34
					c1.13,0.27,2.27,0.16,2.13-1.2c-0.08-0.81,2.67-2.26,1.12-1.43c-0.36,0.2-1.03-0.05-1.51-0.21c-1.69-0.58-3.39-1.16-5.03-1.86
					c-0.64-0.27-1.14-0.88-1.7-1.33c0.15-0.16,0.3-0.32,0.45-0.48c1.08-0.01,2.15-0.03,3.23-0.04c-2.74-1.17-5.38-3.28-8.43-0.67
					c0.19-0.7,0.47-1.02,0.69-1.38c0.46-0.77,0.89-1.55,1.34-2.33c-0.75-0.38-1.46-0.91-2.25-1.1c-1.34-0.32-2.77-0.3-4.09-0.68
					c-0.47-0.14-1.09-1.12-0.99-1.58c0.52-2.37-0.85-3.89-2.57-4.63c-1.76-0.76-3.87-0.96-5.82-0.93c-2.77,0.04-5.53,0.52-8.3,0.79
					c-0.16,0.02-0.34-0.22-0.56-0.38c0.5-0.23,0.91-0.41,1.3-0.58c-5.14-3.48-10.64-2.06-16.42-1.2c0.72-0.91,1.05-1.33,1.66-2.1
					c-4.19-0.01-7.95-0.01-11.9-0.02c0.55-0.75,0.94-1.28,1.62-2.21c-1.01-0.12-1.8-0.47-2.29-0.22c-1.21,0.6-2.25,1.52-3.42,2.21
					c-0.9,0.53-2.1,1.35-2.74-0.13c-0.73-1.71-1.79-1.15-2.82-0.69c-2.08,0.92-4.11,1.94-6.15,2.92c-0.11-0.1-0.23-0.21-0.34-0.31
					c1.32-1.79,2.64-3.59,4.37-5.93c-1.96,0.58-3.22,0.95-4.59,1.34c0.34-1.24,0.6-2.19,0.86-3.15c-1.61,0.41-2.88,0.73-4.15,1.05
					c-0.2-0.26-0.41-0.52-0.61-0.77c-1.6,2.47-3.2,4.95-4.85,7.5c-0.8-0.76-1.38-1.29-2.04-1.91c-0.61,1.44-1.12,2.67-1.64,3.89
					c-0.19-0.08-0.38-0.16-0.57-0.23c0.16-0.8,0.32-1.6,0.49-2.48c-0.95-0.58-1.86-1.13-3.23-1.97c0.85,1.87,1.44,3.17,2.03,4.47
					c-0.36,0.16-0.71,0.33-1.07,0.49c-0.35-0.72-0.58-1.56-1.09-2.15c-0.24-0.27-0.5-0.51-0.78-0.74c-0.16,0.13-0.36,0.27-0.61,0.41
					c-2.17,1.21-5.27,1.02-5.27,1.02s-4.59,1.47-3.05,2.39c1.55,0.92,3.51,4.47,2.86,5.31c-0.65,0.84-2.83,0.58-2.83,0.58
					s-4.25-2.9-4.9-2.06c-0.65,0.84-2.35,1.19-2.77,3.16c-0.42,1.97,1.23,6.59,1.23,6.59s-0.05,3.49-0.3,4.01
					c-0.14,0.29-0.76,0.76-1.3,1.22c0.54,2.16,0.15,4.41-1.29,6.33c-0.11-0.92-0.18-1.51-0.26-2.1c-0.17-0.03-0.35-0.06-0.52-0.09
					c-0.89,3.79-1.78,7.58-2.67,11.37c-0.17-0.57-0.3-1.13-0.41-1.68c-0.35,0.32-0.77,0.66-1.2,1c0.04,1.08,0.08,2.06,0.13,3.34
					c-0.68-0.41-1.16-0.69-2.09-1.25c0.22,1.12,0.37,1.88,0.6,3.06c0.01,0-0.49,0.49-0.98,0.48c-2.15-0.04-3.26,1.44-2.51,3.48
					c0.27,0.74,0.58,1.47,1.01,2.56c-1.25-0.15-2.02-0.24-2.84-0.34c0.59,2.45,0.59,2.45-2.47,6.16c0.51,0.29,1,0.57,1.52,0.86
					c-5.89,11.53-8.41,23.59-7.32,36.1c0.81-1.95,1.75-4.21,2.69-6.47c0.22,0.04,0.44,0.07,0.66,0.11c0.19,0.58,0.38,1.15,0.62,1.9
					c-0.7-0.18-1.06-0.27-1.66-0.42c0.1,1.68,0.19,3.09,0.28,4.49c0.21,0.06,0.42,0.12,0.63,0.18c0.87-1.3,1.74-2.6,2.61-3.91
					c0.05,1.08-0.4,1.86-0.73,2.68c-1.02,2.58-2.03,5.17-2.97,7.78c-0.28,0.78-0.37,1.63-0.5,2.45c-0.16,1.02-0.63,2.18-0.33,3.06
					c1.11,3.24,1.1,3.64-1.49,4.71c-0.95,0.1-1.92,0.76-2.19,2.14c-0.41,2.14-1.3,12.13,1.22,16.58c2.52,4.45,1.62,9.35,4.27,14.68
					c0.49,0.99,0.8,1.87,0.97,2.65c-0.56,1.49-1.09,2.99-1.66,4.59c-0.28,0.78,0.47,1.55,1.26,1.3c2.2-0.71,3.3-1.41,3.76-2.1
					c-0.21,2.43-1.46,4.43-3.28,5.2c0.6,0.03,1.2,0.08,1.81,0.08c1.66-0.02,2.99,1.35,2.6,2.91c-0.48,1.89-1.04,3.77-1.76,5.58
					c5.94,14.33,5.87,29.89,5.25,32.67c-0.68,3.04-0.36,5.58-4.68,10.37c-4.32,4.79,2.37,3.72-19.01,7.41
					c-21.37,3.69-55.22,4.63-61.16,9.85c-2.77,2.44-6.12,5.75-10.76,9.29c0,0.02,0,0.03,0,0.05c-3,2.11-8.61,5.58-10.94,7.08
					c0-0.03,0-0.06,0.01-0.09c-1.81,0.97-3.74,1.92-5.83,2.85c-0.67,3.85-1.33,7.7-1.99,11.54c-0.49,2.9-1.01,5.81-1.36,8.73
					c-3.21,26.57-6.38,53.15-9.56,79.73c-0.08,0.67-0.1,1.35-0.16,2.15c4.65,0.56,9.19,0.93,13.67,1.68
					c5.09,0.86,9.73,3.08,14.51,4.99c4.77,1.91,9.19,4.23,12.96,7.49c4.54,3.93,8.81,8.26,12.7,12.84
					c4.51,5.31,5.34,11.5,2.69,18.08c-0.83,2.07-1.35,4.27-2.06,6.59l30.7,3.68c0.15-4.49,0.3-8.97,0.46-13.55
					c-3.11,1.51-5.01,5.16-3.97,6.11c-0.71,1.85-1.35,3.49-1.86,4.83c-2.8-5.71,1.15-11.91,6.16-15.5c0.66-0.47,1.13-1.31,1.47-2.08
					c0.91-2.05,1.69-4.15,2.42-6.28c0.38-1.23,0.75-2.46,1.15-3.69c0.12-0.36,0.52-0.72,0.47-1.02c-1.16-6.58,1.25-12.04,5.18-17.09
					c0.6-0.78,0.77-1.89,1.15-2.85c-0.24-0.12-0.47-0.23-0.71-0.35c-0.47,0.49-0.94,0.98-1.52,1.59c-1.09-1.97-0.11-3.22,0.86-3.97
					l-0.95-7.89c-1.71,1.37-3.52,2.45-5.69,0.8c1.58-3.37,0.99-8.56,6.92-10.54c-0.12,1.93-0.22,3.56-0.33,5.43
					c2-0.85,1.96-2.11,1.72-3.6c-0.51-3.18-1.44-6.43-1.18-9.56c0.61-7.4,2.87-14.23,9.38-18.77c0.59-0.41,1.66-0.15,2.75-0.21
					c1.69-3.38,4.39-4.23,8.51-2.46c1.25,0.54,2.63,0.75,3.96,1.12c1.33,0.37,2.65,0.74,3.95,1.1l-0.38,3.17
					c1.42-0.95,5.09-1.25,5.91-0.22c1.3,1.63,2.35,3.47,3.56,5.28c-0.09-3.58-0.18-7.16-0.28-11.26c4.36,0.45,8.54,0.87,12.71,1.29
					c0.36,0.04,0.79,0.13,1.09,0c3.92-1.73,6.21-1.13,8.63,2.33c0.48,0.68,0.9,1.4,1.65,2.57c-0.1-3.22-0.18-5.92-0.26-8.62
					c0.1-0.03,0.21-0.06,0.31-0.09c0.18,0.41,0.36,0.83,0.64,1.46c1.55-2.65,4.01-2.09,6.31-1.85c4.37,0.45,8.74,0.98,13.1,1.56
					c0.47,0.06,1.13,0.58,1.27,1.03c0.5,1.6,0.81,3.26,1.36,5.62c-4.89-0.26-9.35-0.5-14.06-0.75c0.22,2.78,0.38,5.39,0.71,7.98
					c0.05,0.36,0.97,0.89,1.47,0.88c3.56-0.1,7.12-0.26,10.66-0.55c1.51-0.13,2.18,0.11,2.44,1.82c0.93,6.13,1,6.11-5.28,6.51
					c-2.85,0.18-5.7,0.42-8.86,0.66c0.19,3.23,0.38,6.34,0.58,9.69c4.06-0.38,7.82-0.63,11.55-1.15c0.78-0.11,1.74-1.05,2.07-1.83
					c1.01-2.42,1.95-4.91,2.54-7.45c0.45-1.97,1.58-2.6,3.33-2.82c1.06-0.13,2.11-0.38,3.2-0.58c-1.06-2.5-2.67-4.79-2.89-7.21
					c-0.22-2.41,0.93-4.95,1.65-8.16c2.98,4.44,5.61,8.28,8.15,12.16c2.53,3.87,4.99,7.79,7.96,11.57c-0.51-2.25-0.99-4.5-1.53-6.74
					c-1.46-6.01-2.95-12.02-4.44-18.02c-0.32-1.29-0.33-3.12-1.17-3.7c-0.74-0.51-2.43,0.43-3.72,0.65
					c-1.11,0.19-2.24,0.28-4.17,0.5c1.31-2.77,2.32-4.96,3.4-7.12c0.13-0.27,0.62-0.42,0.98-0.5c2.15-0.52,4.32-1,6.39-1.47
					c0.39,1.83,0.55,3.75,1.24,5.46c0.59,1.44,1.72,2.71,2.76,3.92c1.23,1.44,1.34,2.53-0.55,3.41c-0.3,0.14-0.49,0.5-1.43,1.49
					c5.56-2,5.52,1.79,6.19,4.52c1.11,4.51,1.98,9.08,2.97,13.62c0.23,1.06,0.37,2.18,0.85,3.13c0.82,1.64,0.43,2.58-1.34,2.72
					c-2.11,0.18-3.81,1.49-6.34,0.99c-2.68-0.52-2.47-1.87-2.99-3.55c-0.92,1.74,0.05,3.31,0.8,5c-1.09,0.32-2.05,0.84-2.99,0.8
					c-0.9-0.04-2.06-0.43-2.59-1.09c-1.2-1.5-2.04-3.28-3.12-4.89c-0.29-0.42-0.97-0.91-1.4-0.85c-2.52,0.39-5.04,0.84-7.51,1.47
					c-0.66,0.17-1.41,0.91-1.68,1.57c-1.19,2.92-2.22,5.91-3.41,9.17c1.07-0.32,2.15-0.65,3.37-1.01c0.29,0.61,0.6,1.28,0.94,2
					c2.13-4.9,6.99-3.32,10.66-4.47c2.15-0.68,4.54-0.62,6.92-0.9c0.21,0.64,0.39,1.19,0.58,1.76c0.14-0.08,0.35-0.14,0.35-0.2
					c0.01-1.93,1.58-2.01,2.76-1.95c3.84,0.18,7.16,1.38,8.59,5.46c0.07,0.21,0.23,0.39,0.74,0.56c-0.12-0.9-0.2-1.82-0.38-2.71
					c-0.18-0.91-0.46-1.8-0.7-2.7c-1.04-3.96-0.79-4.43,3.05-5.74c2.75-0.94,2.87-1.22,1.7-3.97c-3.25-0.21-3.62-0.57-3.84-4.13
					c0.51,0.57,0.84,0.95,1.2,1.35c2.39-1.67,1.36-3.92,0.98-5.91c-0.2-1.06-1.21-1.44-2.04-0.29c-0.6,0.84-1.11,1.76-1.84,2.94
					c-0.09-3.66,0.34-4.28,3.87-5.65c-1.53-5.72-3.06-11.5-4.63-17.36c-2.1,0.5-4.19,0.99-6.63,1.56c-0.48-1.86-1.03-3.61-1.34-5.4
					c-0.09-0.48,0.4-1.42,0.82-1.57c1.86-0.65,3.77-2.58,5.75-0.14c0.12,0.15,0.67-0.03,0.87-0.05c0.47,1.48,0.92,2.87,1.36,4.26
					c0.21-0.04,0.42-0.09,0.63-0.13c0.07-0.61,0.15-1.23,0.16-1.31c1.33-0.21,2.62-0.03,3.17-0.58c1.47-1.46-0.07-2.18-1.26-3.12
					c-0.18,0.59-0.31,1.03-0.45,1.49c-1.19-0.96-0.68-3.3,0.99-3.97c1.79-0.71,3.67-1.18,5.5-1.8c2.69-0.9,5.37-1.84,8.29-2.84
					c0.37,1.59,0.81,3.14,1.05,4.72c0.07,0.47-0.25,1.31-0.64,1.5c-2.9,1.44-5.84,2.8-8.83,4.06c-0.51,0.22-1.3-0.22-2.61-0.49
					c0.93,3.29,1.78,6.3,2.69,9.51c1.7-0.75,3.33-1.47,4.97-2.2c0.5,1.74,0.82,3.16,1.33,4.51c0.51,1.36,0.03,2.05-1.23,2.45
					c-0.37,0.12-0.72,0.27-1.09,0.38c-2.15,0.62-3.26,1.8-2.57,4.23c0.25,0.87,0.07,1.85,0.14,2.78c0.22,3.01,0.73,3.26,3.72,1.67
					c-0.64-0.34-1.17-0.62-2.19-1.16c1.33-0.37,2.22-0.62,2.58-0.72c1.5-1.46,2.71-2.65,3.92-3.83c0.28,0.2,0.22,0.15,0.5,0.36
					c-0.62,1.33-1.25,2.66-2.21,4.71c2.14-0.89,3.67-1.46,5.14-2.16c1.84-0.87,3.05-0.7,3.48,1.59c0.2,1.05,0.75,2.02,1.16,3.03
					c0.57,1.4,0.44,2.04-1.35,2.55c-4.03,1.15-7.93,2.75-11.88,4.17c0.09,0.34,0.18,0.67,0.27,1.01c1.4-0.36,2.8-0.8,4.22-1.05
					c0.66-0.12,1.84-0.09,2,0.24c0.85,1.79,1.45,3.7,2.22,5.8c-3.69,1.26-7.14,2.58-10.67,3.61c-2.22,0.65-3.15,1.7-2.42,4
					c0.3,0.95,0.44,1.96,0.65,2.94c0.73,3.41,0.71,3.35,4.06,2.15c2.98-1.07,5.95-2.26,9.03-2.9c2.24-0.47,4.64-0.14,6.97-0.16
					c0.01,0.29,0.02,0.57,0.03,0.86c-0.82,0.22-1.65,0.44-2.65,0.71c0.34,0.74,0.61,1.33,0.94,2.04c-0.58,0.19-1.12,0.36-1.57,0.5
					c0.06,1.38,0.11,2.64,0.19,4.35c1.65-0.11,3.49-0.24,5.33-0.37c-1.51,1.07-2.35,3.61-5.04,1.32c-1.11-0.94-3.43-1.35-5.38-0.4
					c-1.3,0.63-2.82,0.82-4.2,1.31c-1.43,0.51-2.73,0.85-3.24-1.44c-0.24,0.09-0.48,0.19-0.72,0.28c-0.14,1.13-0.54,2.31-0.35,3.38
					c0.41,2.33,1.25,4.59,1.68,6.92c0.23,1.26-0.03,2.62-0.09,4.57c1.41,0.75,3.61,1.93,5.81,3.11c-0.13,0.23-0.26,0.46-0.4,0.7
					c-0.66-0.43-1.32-0.86-2.41-1.58c0.57,1.13,0.94,1.87,1.48,2.93c-2.45,0.66-4.72,1.29-7,1.88c-2.92,0.76-5.83,1.53-8.77,2.18
					c-0.63,0.14-1.63,0.05-2.01-0.36c-4.29-4.58-8.5-9.23-12.71-13.88c-0.34-0.38-0.56-0.88-0.98-1.57c1.53-0.7,2.91-1.32,4.28-1.97
					c3.1-1.46,4.33-4.26,3.81-8.67c-0.32-2.72-2.33-4.92-5.28-5.46c-0.8-0.15-1.72,0.29-2.57,0.49c-0.98,0.22-1.96,0.46-2.94,0.72
					c-0.96,0.25-1.92,0.54-3.22,0.91c2.23,9.76,4.45,19.5,6.78,29.69c-0.7-0.61-1.04-0.91-1.51-1.32c-1.65,1.65-0.57,3.47-0.54,5.45
					c-1.74,0.36-3.53,0.73-5.76,1.19c-0.21-2.73-0.33-5.21-0.61-7.69c-0.3-2.72,0.82-5.7-2.04-7.97c-0.9-0.71-0.73-2.77-0.71-4.46
					c0.6,0.93,1.21,1.86,1.81,2.79c0.16-0.06,0.32-0.11,0.48-0.17c-0.65-1.71-0.92-3.75-2.04-5.04c-1.89-2.16-2.62-4.62-3.15-7.26
					c-0.32-1.6-0.6-3.2-1-4.78c-0.11-0.42-0.57-0.75-0.87-1.12c-0.18,0.49-0.56,1-0.5,1.45c0.32,2.38,0.76,4.74,1.14,7.1
					c0.17,1.05,0.27,1.81-1.37,1.71c-0.64-0.04-1.36,1.35-2.33,2.41c0.05,0.41,0.15,1.31,0.26,2.34c0.8,0,1.53-0.01,2.56-0.02
					c-0.64,3.45-1.24,6.75-1.92,10.43c1,1.05,1.1,3.85-0.91,6.25c-0.94-4.74-1.88-9.48-2.76-13.96c-1.05,1.85-1.88,4.18-3.44,5.83
					c-1.64,1.73-3.91,2.91-6.03,4.11c-1.92,1.1-3.26,2.29-3.5,4.74c-0.24,2.52-0.99,5.01-1.71,7.46c-0.41,1.41-1.19,2.72-1.85,4.2
					c-0.13-0.12-0.02,0.07,0.07,0.06c2.64-0.33,3.59,0.81,3.21,3.42c-0.14,0.97,0.22,2.01,0.38,3.28
					c-6.16,1.05-11.07,4.73-14.53,9.96c-1.48,2.24-1.39,5.53-2.06,8.52l6.02,0.72c0.59-1.45,1.14-2.8,1.69-4.16
					c0.24,0.06,0.48,0.13,0.72,0.19c-0.29,1.33-0.58,2.66-0.9,4.1c0.38,0.07,0.94,0.18,1.6,0.31c-0.03-1.15-0.05-2.1-0.07-3.06
					c0.2-0.03,0.4-0.07,0.61-0.1c0.18,0.95,0.35,1.9,0.48,2.61c1.66,0.5,3.17,0.95,4.73,1.41c0.49-0.69,0.91-1.28,1.73-2.41
					c-0.04,1.19-0.07,1.76-0.11,2.93c1.53-0.55,2.86-1.02,4.2-1.5c-0.32-0.62-0.63-1.23-0.88-1.72c0.81-1.06,1.82-2.37,2.65-3.45
					c-0.06,0.98-0.15,2.51-0.26,4.28c4.63-1.44,2.72-5.62,4.05-7.89c-0.92-1.67-1.63-3.29-2.64-4.68c-1.34-1.84-2.7-3.77-4.45-5.17
					c-1.65-1.33-1.12-2.65-0.85-4.11c0.18-0.96,0.49-1.89,0.89-3.4c0.38,0.38,1.02,0.77,1.3,1.34c0.55,1.11,0.05,2.95,2.23,2.9
					c0.14,0,0.43,1.18,0.44,1.82c0.01,0.54-0.3,1.08-0.54,1.87c1.09-0.15,1.82-0.25,2.79-0.38c-0.46-1.71-0.88-3.28-1.29-4.84
					c0.25-0.06,0.51-0.12,0.76-0.17c0.15,0.6,0.31,1.2,0.53,2.07c0.89-0.35,1.63-0.64,2.94-1.16c1.82,3.24,3.68,6.56,5.56,9.91
					c-0.47-2.59-0.93-5.28-1.45-7.96c-0.5-2.6,0.53-3.71,3.17-3.54c0.98,0.06,2.01-0.21,2.96-0.49c1.34-0.39,2.01-0.09,2.24,1.38
					c0.95,6.12,2.02,12.22,2.95,18.34c0.22,1.5,0.05,3.05,0.06,5.27c2.97-0.62,5.69-1.17,8.4-1.77c0.52-0.11,1-0.42,1.51-0.59
					c3.92-1.31,4.01-1.23,4.31,2.95c0.1,1.38-0.28,2.23-1.76,2.46c-1.07,0.17-2.1,0.53-3.16,0.78c-1.06,0.24-2.12,0.45-3.67,0.78
					c17.14,2.05,33.81,4.05,50.53,6.06c0.19-0.56,0.39-1.17,0.59-1.77c0.25,2.13,1.72,2.26,3.3,2.43c4.93,0.52,9.85,1.4,14.79,1.57
					c2,0.07,4.06-1.33,5.9-1.99c-1.58-4.71-0.48-8.76,0.05-12.81c0.66,2.85,1.33,5.7,2.06,8.82c3.56-2.99,3.28-6.06,1.38-9.52
					c0.93,1.66,1.53,2.98,3.54,1.45c-0.4-1.39-0.82-2.83-1.32-4.52c0.96,0.48,1.69,1.13,2.34,1.06c0.52-0.05,0.91-1.02,1.44-1.49
					c0.62-0.55,1.48-0.89,1.98-1.52c1.21-1.53,2.27-3.17,3.23-4.54c-0.31-1.78-0.61-3.46-0.89-5.06c-0.06,0.09-0.26,0.4-0.88,1.35
					c0.02-1.52,0.04-2.41,0.06-3.91c-1.47,2.47-2.63,4.52-3.89,6.51c-0.35,0.55-1.06,0.88-1.4,1.43c-0.67,1.1-1.2,2.29-1.59,3.58
					c-0.59,1.08-1.18,2.16-2,3.65c-0.16-1.2-0.26-2.03-0.37-2.86c-0.13-0.02-0.26-0.05-0.39-0.07c-0.17,0.85-0.23,1.75-0.54,2.55
					c-0.3,0.79-0.84,1.49-1.76,2.11c2.04-4.06,1.04-8.14,0.89-12.3c0.32,0.88,0.64,1.76,1.17,3.23c-0.11-2.2-0.2-3.75-0.28-5.3
					c0.29-0.02,0.59-0.03,0.88-0.05c0.13,2.47,0.26,4.95,0.4,7.75c1.82-3.18,3.57-6.26,5.36-9.4c0.09,0.07,0.41,0.34,0.74,0.61
					c0.07-0.12,0.2-0.25,0.18-0.36c-0.33-2.2-1.32-4.48,0.9-6.35c0.24-0.2,0.24-0.72,0.29-1.11c0.59-4.34,1.59-8.69,1.62-13.04
					c0.02-3.44-1.16-6.88-1.79-10.32c-0.22-1.18-0.38-2.36-0.57-3.54c0.28-0.06,0.57-0.13,0.85-0.19c0.4,1.49,0.89,2.96,1.17,4.47
					c0.72,3.84,1.74,7.53,3.17,11.22c1.26,3.26,3.27,6.17,4.04,9.83c0.6,2.87,0.34,5.84,1.32,8.68c1.02,2.95,1.18,6.19,1.78,9.29
					c0.18,0.94,0.59,1.83,0.9,2.75c0.1,0.28,0.33,0.58,0.28,0.84c-0.63,3.56-1.48,7.08-1.89,10.66c-0.45,3.85-0.49,7.75-0.7,11.54
					l16.93,2.03c-1.43-6.98-2.79-13.58-4.15-20.19c0.25-0.05,0.5-0.1,0.75-0.15c0.32,1.88,0.57,3.77,0.97,5.63
					c0.96,4.46,2.05,8.9,2.96,13.37c0.31,1.51,1.04,1.99,2.48,2.13c3.09,0.28,6.16,0.74,9.23,1.12l12.13-101.23
					C301.61,357.64,295.49,354.18,289.47,350.54z M171.64,144.63c0.95-0.86,2.06-1.68,3.26-2.07c0.42-0.14,1.4,0.88,1.87,1.55
					c0.63,0.9,1.01,1.98,1.5,2.99c-0.16,0.24-0.31,0.47-0.47,0.71c-1.83-0.41-3.69-0.71-5.45-1.31
					C171.93,146.35,171.45,144.81,171.64,144.63z M150.09,116.13c0.17,0.88,0.39,1.77,0.45,2.66c0.01,0.09-0.9,0.25-1.38,0.37
					c-0.03-0.98-0.05-1.96-0.08-2.95C149.42,116.19,149.76,116.16,150.09,116.13z M123.35,132.88c-0.1,0.71-1.57,1.45-2.54,1.73
					c-0.43,0.13-1.61-0.78-1.7-1.33c-0.17-1.09,0.18-2.26,0.37-3.84c2.77,0.46,5.38,0.89,7.99,1.32c0,0,0,0,0.01,0
					C125.88,130.98,123.76,129.94,123.35,132.88z M99.99,118.37c3.24-1.35,6.6-2.49,10.33-1.75c0.04-0.31,0.09-0.72,0.15-1.22
					c0.32,0.2,0.62,0.28,0.68,0.45c0.6,1.77,1.95,2.1,3.63,2.19c3.72,0.2,7.44,0.59,11.15,0.87c1.32,0.1,2.86,0.7,3.39-1.35
					c0.08-0.29,0.75-0.67,1.08-0.62c2.71,0.5,5.63,0.64,8.02,1.83c1.23,0.62,1.89,3.11,2.09,4.84c0.23,2.03-0.21,4.16-0.56,6.21
					c-0.4,2.36-3.26,4.33-6.4,4.57c-1.31,0.1-2.65,0.01-3.94,0.2c-2.07,0.3-3.01-0.24-2.28-2.47c0.14-0.42,0.14-0.89,0.21-1.34
					c3.1,0.56,6.19,1.13,9.27,1.7c0.05-0.17,0.1-0.34,0.15-0.51c-0.73-0.22-1.45-0.51-2.19-0.64c-4.57-0.79-9.16-1.48-13.71-2.36
					c-0.78-0.15-1.42-1.04-2.42-1.82c-0.21,1.77-0.33,3.72-0.74,5.61c-0.12,0.57-1.13,1.45-1.57,1.36
					c-4.91-1.01-9.78-2.18-14.66-3.34c-0.33-0.08-0.59-0.4-1.29-0.88c1.25-0.28,2.08-0.47,3.34-0.75c-0.71-0.92-1.37-1.61-1.85-2.4
					c-1.13-1.89-2.35-3.76-3.14-5.8C98.48,120.31,99.29,118.66,99.99,118.37z M88.02,178.25c0.1-0.16,0.19-0.31,0.29-0.48
					c0.42,0.89,0.69,1.78,0.82,2.66C88.72,179.66,88.1,178.93,88.02,178.25z M175.03,326.99c-0.83,0.43-1.48,0.77-2.28,1.19
					c-0.27-1.76-0.58-3.73-0.88-5.69c0.33-0.07,0.66-0.15,0.99-0.22C173.58,323.82,174.3,325.39,175.03,326.99z M183.82,246.65
					c-0.24-0.61-0.48-1.23-0.72-1.84c-0.17,0.09-0.34,0.18-0.51,0.26c-0.37,3.1-0.39,6.29-1.17,9.28
					c-3.5,13.34-12.52,21.39-25.54,24.64c-6.08,1.52-12.55,1.6-18.86,1.96c-2.15,0.13-4.38-0.82-6.56-1.35
					c-4.03-0.99-8.13-1.82-11.63-4.21c-1.58-1.08-2.98-2.42-4.46-3.64c-5.2-4.26-10.92-12.38-12.11-17.41
					c0.6,0.45,1.02,0.77,1.44,1.08c0.13-0.07,0.25-0.14,0.38-0.21c-0.15-0.42-0.19-0.91-0.45-1.25c-1.84-2.38-1.58-4.98,0.88-6.48
					c0.71-0.43,1.85-0.18,3.53-0.59c-0.74-0.37-1.48-0.75-2.63-1.33c1.4-0.52,2.05-0.76,2.69-1c0.69,0.71,1.43,1.35,2.03,2.12
					c0.57,0.73,0.98,1.57,1.31,2.11c1.64,0.43,3.08,0.81,4.58,1.2c1.28-1.83,1.87-1.8,3.98-0.22c1.13,0.84,2.16,1.88,4.05,1.43
					c1.09-0.26,2.52,0.89,3.94,1.46c-0.2,0.49-0.38,0.91-0.38,0.92c2.36,0.47,4.68,0.92,7.04,1.39c-0.02-0.2-0.07-0.59-0.15-1.18
					c1.41,0.57,2.79,0.92,3.94,1.62c3.81,2.34,7.55,1.8,11.15-0.27c2.13-1.23,4-2.89,6.02-4.3c0.49-0.35,1.14-0.48,1.94-0.27
					c-0.42,0.36-0.85,0.73-1.29,1.11c2.53,1.9,3.96,1.72,5.31-0.61c1.72,1.11,3.62,0.73,5.75-0.99c0.66-0.53,1.54-0.79,2.34-1.13
					c2.13-0.9,4.75-0.81,6.25-2.97c0.27-0.39,0.24-0.99,0.37-1.59c-1.43,0.64-2.47,1.14-3.55,1.56c-0.16,0.06-0.72-0.37-0.7-0.45
					c0.17-0.56,0.33-1.41,0.72-1.56c1.24-0.47,2.56-0.59,2.45-2.5c-0.01-0.26,1.7-0.7,2.64-0.91c0.76-0.16,1.57-0.09,2.61-0.14
					c-1.28-0.82-2.24-1.43-3.5-2.23c1.63-1,3.75,0.83,3.99-1.5c-1.5-0.74-2.79-1.38-4.46-2.21c1.7-0.02,2.95-0.04,4.26-0.06
					c0.18-0.98,0.33-1.81,0.52-2.84c0.83,2.17,1.44,0.4,2.3-0.6c0.15,3.74,0.28,6.83,0.4,9.92c-0.09,0.02-0.17,0.03-0.26,0.05
					c-0.1-0.31-0.21-0.61-0.31-0.92c0.37,1.29-2.76,3.17,0.68,4.04C184.28,244.1,184.13,245.6,183.82,246.65z M202.41,283.25
					c-1.09-2.27-2.66-4.21-2.91-6.3c-0.66-5.42-3.4-10.93,0.19-16.47C202.96,265.43,204.7,278.94,202.41,283.25z M127.63,434.17
					c-0.15,0-0.3,0-0.45,0c-0.02-1.95-0.04-3.91-0.05-5.86c0.4,0.02,0.8,0.03,1.2,0.05C128.1,430.3,127.87,432.23,127.63,434.17z
					 M134.15,440.05c-0.36-1.82-0.6-3.05-0.8-4.09c2.55-0.5,1.12-2.5,1.55-3.68C136.24,433.93,136.09,436.96,134.15,440.05z
					 M154.06,414.18c-1.16,0.13-2.6,0.36-2.86-1.67c0.4,0.12,0.74,0.22,1.08,0.32c0.18-0.81,0.36-1.61,0.55-2.4
					c0.22-0.1,0.44-0.2,0.65-0.3c0.63,0.94,1.35,1.84,1.82,2.86C155.39,413.17,154.54,414.13,154.06,414.18z M157.21,391.81
					c-0.56-2.15-1.12-4.3-1.69-6.45c0.23-0.09,0.46-0.18,0.69-0.26c0.64,2.16,1.28,4.31,1.92,6.47
					C157.83,391.65,157.52,391.73,157.21,391.81z M228.28,395.84c-0.62,2.23-1.12,4.53-2.97,6.08c-0.2-0.1-0.4-0.2-0.6-0.3
					c0.78-1.6,1.55-3.21,2.35-4.8c1.31-2.61,1.28-2.71-1.25-3.79c-0.23-0.1-0.34-0.47-0.71-1.02
					C228.39,392.37,229.01,393.22,228.28,395.84z M219.32,328.81c1.12,0.03,2.3-0.15,3.33,0.16c0.54,0.17,0.81,1.21,1.21,1.85
					c-0.72,0.09-1.5,0.4-2.14,0.22c-0.97-0.26-1.85-0.87-2.77-1.32C219.07,329.42,219.19,329.12,219.32,328.81z M222.04,338.94
					c-1.35,0.37-2.59,0.72-4.18,1.16C219.39,337.34,220.69,337.01,222.04,338.94z M208.13,314.06c1.72,0.59,3.44,1.17,5.73,1.96
					c0.12,0.44,0.37,1.35,0.62,2.25c-0.15,0.1-0.31,0.2-0.46,0.3c-2.06-1.37-4.11-2.74-6.17-4.11
					C207.95,314.32,208.04,314.19,208.13,314.06z M202.49,326.07c0.28,1.24,0.52,2.32,0.77,3.4c-0.16,0.08-0.32,0.16-0.49,0.24
					c-0.57-0.69-1.14-1.37-1.72-2.06c-0.16,0.06-0.32,0.11-0.47,0.17c0.2,0.99,0.14,2.15,0.65,2.94c1.37,2.14,0.31,2.83-1.57,3.3
					C198.53,328.77,198.96,327.45,202.49,326.07z M204.83,335.44c0.49,0.38,0.91,0.72,1.29,1.02c-0.06,0.2-0.07,0.34-0.1,0.34
					c-2.06,0.16-4.12,0.3-6.32,0.46c1.93-2.6,4.73-3.61,7.99-3.87C206.79,334.03,205.89,334.68,204.83,335.44z M209.25,320
					c1.1,0.74,2.03,1.77,3.12,1.98c1.04,0.2,2.25-0.46,3.7-0.82c-0.5,1.56-0.8,2.51-1.11,3.48
					C211.86,324.52,209.67,322.82,209.25,320z M212.14,348.24c-0.93-2.79-1.73-5.19-2.53-7.6c-0.05-0.15-0.11-0.42-0.08-0.44
					c1.74-0.79,3.46-1.66,5.27-2.25c0.49-0.16,1.61,0.43,1.85,0.95c0.74,1.59,1.2,3.31,1.78,5.03c1.71-0.34,2.35-3.05,4.37-1.79
					c0.73,0.46,1.12,1.47,1.53,2.04c-1.53,0.34-2.81,0.49-3.99,0.91C217.72,346.01,215.17,347.06,212.14,348.24z M188.07,440.23
					c-0.84,2.4-3.42,2.54-5.48,2.66c-0.83,0.05-1.97-1.43-2.62-2.44c-2.04-3.19-3.91-6.48-5.83-9.75c-0.22-0.38-0.28-0.85-0.29-0.88
					c1.01-1.25,2.55-2.29,2.5-3.24c-0.12-2.39-2.59-1.09-4.23-2.24c0.68-0.15,1.36-0.31,2.33-0.53c-1.44-1.26-2.28-2-3.32-2.91
					c-0.43,0.39-0.94,0.85-1.93,1.75c-1.78-4.54-3.46-8.84-5.21-13.31c1.9-0.46,3.49-1.2,5.02-1.1c1.16,0.07,2.75,0.94,3.3,1.92
					c4.03,7.14,7.87,14.4,11.71,21.65c0.26,0.48-0.06,1.26,0.19,1.75c0.36,0.69,0.89,1.4,1.54,1.79c0.59,0.36,2.01,0.19,2.06,0.46
					C188.11,437.26,188.53,438.93,188.07,440.23z M224.4,430.38c-5.32,1.57-10.68,3.01-16.03,4.46c-0.18,0.05-0.43-0.13-0.39-0.12
					c-1.39-4.12-2.73-8.07-4.08-12.09c-0.77,0.14-1.33,0.23-2.12,0.37c-0.22-1.5-0.43-2.86-0.63-4.22
					c-0.28-1.93,0.52-2.42,2.44-1.48c0.27-0.74,0.52-1.4,0.78-2.12c-1.3,0.13-2.34,0.24-3.37,0.34c0.03-0.17,0.05-0.34,0.08-0.51
					c0.97-0.81,1.95-1.6,2.88-2.45c0.18-0.17,0.26-0.63,0.17-0.89c-0.78-2.24-1.61-4.47-2.46-6.8c-1.09,1.79,1.61,3.76-0.97,5.42
					c-0.23-1.87-0.47-3.75-0.79-6.28c-0.3,1.06-0.4,1.53-0.57,1.97c-1.76,4.6-2.05,9.57-4.29,14.13c-1.58,3.23-1.59,7.2-2.48,10.8
					c-0.42,1.69-1.28,3.26-1.96,4.92c-1.74-1.71-3.32-2.83-4.3-4.33c-1.65-2.52-1.12-5.6,0.3-7.74c3.57-5.38,3.92-11.35,4.17-17.38
					c0.11-2.6,0.82-4.06,3.57-4.61c2.94-0.58,5.75-1.78,8.67-2.51c2.88-0.71,5.82-1.17,8.84-1.76c-0.75-1.31,2.04-2.97,0.15-4.71
					c-1.23-1.13-1.68-3.41-4.29-2.72c1.07-2.65-0.88-3.33-2.54-3.61c-1.51-0.25-3.14,0.3-5.14,0.17c1.06-0.91,2.01-2.27,3.22-2.59
					c1-0.26,2.62,0.41,3.45,1.21c1.27,1.23,2.22,2.38,4.12,1.14c0.22-0.14,1.14,0.47,1.5,0.93c0.87,1.1,1.6,2.31,2.39,3.48
					c0.25-0.1,0.5-0.2,0.74-0.3c-0.22-1.31-0.32-2.64-0.67-3.91c-0.6-2.18-0.15-3.74,2.1-4.57c0.65-0.24,1.25-0.61,2.32-1.15
					c0.7,2.52,1.47,4.9,1.94,7.34c0.1,0.55-0.75,1.49-1.39,1.91c-1.02,0.68-2.24,1.04-3.34,1.6c-0.33,0.17-0.53,0.59-1.16,1.32
					c3.69-1.02,4.05-0.78,4.52,2.47c0.59,4.06,0.59,4.05-3.21,5.87c-1.88,0.9-3.69,2.02-5.65,2.7c-2.24,0.78-2.66,2.37-2.49,4.34
					c0.11,1.36,0.45,2.7,0.7,4.13c4.72-0.02,7.75-3.2,11.7-5.46c0.4,2.47,1.24,4.66,0.89,6.63c-0.23,1.3-1.99,2.65-3.38,3.35
					c-2.53,1.27-5.3,2.06-8.23,3.15c0.34,2.64,0.69,5.33,1.12,8.65c4.62-1.96,8.77-3.72,13.26-5.63c0.31,1.76,0.74,3.54,0.88,5.34
					C225.43,429.15,224.88,430.24,224.4,430.38z M226.89,428.45c-0.32-2.35-0.78-4.67-0.85-6.99c-0.02-0.57,1.16-1.29,1.91-1.74
					c0.98-0.59,2.07-0.99,3.29-1.54C233.44,424.6,233.6,426.76,226.89,428.45z M270.26,345.91c-0.52,0.87-1.04,1.76-1.93,3.26
					c-0.09-1.91-0.16-3.26-0.24-5.02C269.19,345.04,269.83,345.56,270.26,345.91z M254.41,396.66c-0.31-0.01-0.61-0.03-0.92-0.04
					c-0.04-1.54-0.07-3.08-0.11-4.63C255.96,393.47,253.71,395.12,254.41,396.66z M232.46,449.83c1.15-1.13,1.84-1.81,3.09-3.03
					c0.04,1.46,0.06,2.43,0.08,3.4C234.7,450.1,233.77,449.99,232.46,449.83z M243.66,410.94c0.3-0.11,0.61-0.21,0.91-0.32
					c0.78,1.79,1.57,3.58,2.35,5.37c-0.27,0.11-0.53,0.23-0.8,0.34C245.3,414.53,244.48,412.73,243.66,410.94z M243.67,422.03
					c0.64,2.49,1.2,4.64,1.85,7.15C243.18,427.74,242.46,424.79,243.67,422.03z M247.09,386.79c2.32-0.14,5,2.16,4.68,4.17
					C250.1,389.48,248.68,388.21,247.09,386.79z M252.29,420.88c-0.27-1.92-0.54-3.83-0.81-5.75c2.37,1.57,1.11,3.72,1.51,5.64
					C252.76,420.81,252.53,420.84,252.29,420.88z M254.65,415.17c-1.17-4.29-2.44-8.94-3.77-13.79
					C255.47,405.37,255.64,410.32,254.65,415.17z M262.05,384.55c0-3.82-1.57-7.28-0.26-11.08
					C264.2,376.37,264.47,382.54,262.05,384.55z M276.47,425.92c-1.71-6.69-3.42-13.37-5.18-20.26c-0.46,0.27-0.83,0.5-1.4,0.84
					c0.01-0.89,0.01-1.63,0.01-2.39c0.53,0.06,0.95,0.11,1.4,0.17c-0.18-1.86-0.31-3.62-0.53-5.37c-0.2-1.58-0.29-3.31-2.55-3.75
					c0.52-0.25,1.03-0.49,2.11-1.01c-4.85-2.08-2.64-6.02-2.73-9.68c0.04-0.02,0.56-0.35,1.16-0.72c-0.25-0.26-0.38-0.53-0.55-0.55
					c-2.41-0.38-4.35-3.68-3.37-5.85c0.13-0.3,0.73-0.71,0.84-0.64c0.52,0.34,0.95,0.82,1.34,1.19c-1.19-3.94-2.39-7.9-3.65-12.06
					c0.29-0.25,0.67-0.56,0.8-0.67c-0.41-2.07-0.78-3.98-1.2-6.13c-0.43,0.52-0.72,0.86-1.11,1.32c-0.45-4.77-0.89-9.33-1.32-13.89
					c0.19-0.03,0.39-0.05,0.58-0.08c7.37,26.04,11.22,52.79,15.9,79.38C276.84,425.82,276.66,425.87,276.47,425.92z"/>
			</g>
			<path d="M212.8,230.04c3.76,1.59,27.46-1.73,35.12,6.07c7.66,7.81,8.96,7.52,12,17.2c3.04,9.68,6.94,26.45,7.66,31.22
				s-4.63,14.89-7.37,15.9c-2.75,1.01-25.87,2.6-25.87,2.6l-27.32-7.66c0,0-11.13-12-12.14-17.06c-1.01-5.06-0.87-26.74-0.87-26.74
				l7.37-15.18"/>
		</g>
	</g>
	<g>
		<path class="st3" d="M230.58,244.07c-23.21,20.09-53.47,32.25-86.58,32.25c-12.84,0-25.25-1.83-36.99-5.24"/>
		<path class="st3" d="M272.01,177.63c-5.76,21.98-17.03,41.73-32.24,57.68"/>
		<path class="st3" d="M271.95,110.15c2.85,10.8,4.37,22.15,4.37,33.85c0,8.43-0.79,16.68-2.3,24.68"/>
		<path class="st3" d="M131.62,12.25c4.08-0.38,8.21-0.57,12.38-0.57c59.35,0,109.58,39.08,126.35,92.91"/>
		<path class="st3" d="M27.16,206.16c-9.88-18.53-15.48-39.69-15.48-62.16c0-67.35,50.31-122.94,115.4-131.25"/>
		<path class="st3" d="M99.46,268.64c-28.96-10.35-53.26-30.51-68.9-56.48"/>
	</g>
	<circle class="st4" cx="144" cy="144" r="141.02"/>
</g>
</svg>
