<?xml version="1.0" encoding="utf-8"?>
<!-- Generator: Adobe Illustrator 24.2.3, SVG Export Plug-In . SVG Version: 6.00 Build 0)  -->
<svg version="1.1" id="Layer_1" xmlns="http://www.w3.org/2000/svg" xmlns:xlink="http://www.w3.org/1999/xlink" x="0px" y="0px"
	 viewBox="0 0 72 72" style="enable-background:new 0 0 72 72;" xml:space="preserve">
<style type="text/css">
	.st0{fill:#AF997A;}
</style>
<path class="st0" d="M64.51,38.56c-0.15,1.08-0.26,2.16-0.45,3.24c-1.28,7.09-4.88,12.8-10.42,17.32c-2.51,2.05-5.36,3.5-8.41,4.56
	c-1.27,0.44-2.13-0.17-2.14-1.53c-0.02-2.36-0.01-4.71,0-7.07c0-2.11-0.19-4.16-1.89-5.77c1.16-0.22,2.26-0.36,3.32-0.63
	c2.93-0.73,5.55-2.01,7.34-4.56c1.34-1.91,1.93-4.11,2.18-6.4c0.19-1.75,0.24-3.51-0.17-5.25c-0.4-1.7-1.16-3.2-2.29-4.51
	c-0.25-0.29-0.3-0.52-0.17-0.89c0.8-2.32,0.48-4.6-0.38-6.84c-0.05-0.14-0.29-0.26-0.46-0.28c-0.97-0.12-1.89,0.13-2.75,0.53
	c-1.44,0.68-2.83,1.46-4.25,2.16c-0.27,0.13-0.64,0.23-0.92,0.16c-4.44-1.12-8.87-1.12-13.31,0.01c-0.26,0.07-0.63-0.01-0.86-0.15
	c-1.84-1.17-3.78-2.12-5.9-2.64c-1.32-0.32-1.57-0.14-1.95,1.16c-0.59,2.04-0.68,4.08,0.02,6.12c0.05,0.16-0.04,0.43-0.15,0.56
	c-1.29,1.5-2.18,3.2-2.45,5.15c-0.55,4.05-0.04,7.92,2.31,11.38c1.22,1.8,3.05,2.83,5.01,3.65c1.64,0.69,3.38,0.94,5.12,1.2
	c0.07,0.01,0.15,0.03,0.15,0.03c-0.41,0.75-0.84,1.51-1.24,2.29c-0.12,0.24-0.21,0.53-0.22,0.79c-0.02,0.65-0.4,0.93-0.97,1.08
	c-1.52,0.4-3.05,0.68-4.58,0.07c-1.2-0.48-2.07-1.36-2.72-2.45c-0.85-1.45-2-2.54-3.62-3.02c-0.54-0.16-1.16-0.16-1.74-0.11
	c-0.52,0.05-0.6,0.3-0.3,0.71c0.23,0.31,0.49,0.64,0.81,0.82c1.49,0.86,2.34,2.24,3.02,3.74c0.41,0.89,0.76,1.8,1.52,2.49
	c1.19,1.09,2.64,1.5,4.18,1.58c1.34,0.07,2.7-0.01,4.12-0.03c0,0.04,0.03,0.21,0.03,0.39c0.02,1.48,0.04,2.97,0.04,4.45
	c0.01,1.46-0.89,2.07-2.28,1.59c-5.45-1.88-9.9-5.13-13.39-9.71c-3-3.94-4.91-8.35-5.54-13.27c-1-7.86,0.79-15.04,5.63-21.34
	c4.2-5.46,9.71-8.96,16.44-10.46c1.35-0.3,2.75-0.4,4.12-0.59c0.24-0.03,0.47-0.07,0.71-0.1c0.89,0,1.78,0,2.67,0
	c0.27,0.04,0.55,0.07,0.82,0.11c1.8,0.3,3.65,0.45,5.4,0.92c5.83,1.59,10.69,4.76,14.52,9.44c3.27,4,5.34,8.54,6.09,13.67
	c0.12,0.78,0.22,1.57,0.33,2.35C64.51,35.97,64.51,37.26,64.51,38.56z"/>
</svg>
