<?xml version="1.0" encoding="utf-8"?>
<!-- Generator: Adobe Illustrator 24.2.3, SVG Export Plug-In . SVG Version: 6.00 Build 0)  -->
<svg version="1.1" id="Layer_1" xmlns="http://www.w3.org/2000/svg" xmlns:xlink="http://www.w3.org/1999/xlink" x="0px" y="0px"
	 viewBox="0 0 72 72" style="enable-background:new 0 0 72 72;" xml:space="preserve">
<style type="text/css">
	.st0{fill:#AF997A;}
</style>
<g>
	<path class="st0" d="M63.11,21.66c0-0.39,0-0.78-0.05-1.16c-0.14-1.24-0.43-2.45-0.9-3.61c-0.81-2-2.01-3.72-3.63-5.14
		c-0.92-0.82-1.94-1.49-3.05-2.03c-1.82-0.88-3.73-1.36-5.75-1.36c-9.16,0-18.31,0-27.47,0c-0.46,0-0.92,0.01-1.38,0.06
		c-1.6,0.18-3.12,0.65-4.56,1.37c-1.49,0.75-2.8,1.75-3.93,2.99c-0.81,0.89-1.49,1.87-2.04,2.93c-0.52,0.99-0.9,2.04-1.15,3.13
		c-0.15,0.64-0.27,1.29-0.28,1.95c0,0.23,0.02,0.47-0.03,0.7c0,0.01,0,0.02,0,0.04c0.04,0.09,0.01,0.18,0.02,0.27
		c0,9.47,0,18.93,0,28.4c-0.01,0.09,0.02,0.18-0.02,0.26c0,0.01,0,0.02,0,0.04c0.04,0.07,0.02,0.14,0.02,0.22
		c0,0.56,0.04,1.12,0.14,1.67c0.29,1.59,0.82,3.09,1.63,4.49c0.7,1.2,1.56,2.27,2.58,3.21c0.78,0.72,1.64,1.33,2.57,1.85
		c1.16,0.65,2.38,1.12,3.68,1.41c0.98,0.22,1.97,0.3,2.97,0.28c9.02,0,18.03,0,27.05,0c0.28-0.01,0.57-0.01,0.85-0.01
		c0.98-0.01,1.94-0.19,2.87-0.47c2.51-0.73,4.64-2.06,6.4-4c0.96-1.07,1.73-2.25,2.31-3.56c0.75-1.69,1.15-3.45,1.15-5.3
		C63.11,40.75,63.11,31.2,63.11,21.66z M58.85,47.84c-0.01,3.61-1.44,6.58-4.2,8.89c-1.51,1.27-3.26,2.05-5.19,2.41
		c-0.71,0.13-1.43,0.18-2.15,0.18c-7.55,0-15.1,0-22.65,0c-2.64,0-5.03-0.78-7.12-2.4c-1.58-1.22-2.75-2.76-3.53-4.6
		c-0.62-1.45-0.9-2.97-0.9-4.55c0-7.84,0-15.69,0-23.53c0-2.75,0.84-5.2,2.58-7.33c1.76-2.16,4.03-3.5,6.77-4.03
		c0.72-0.14,1.44-0.19,2.16-0.19c7.68,0,15.36-0.01,23.03,0.01c2.1,0,4.05,0.62,5.83,1.74c2.04,1.29,3.53,3.05,4.48,5.27
		c0.42,0.98,0.68,2,0.8,3.05c0.06,0.48,0.08,0.97,0.08,1.45c0,3.93,0,7.87,0,11.8C58.85,39.96,58.87,43.9,58.85,47.84z"/>
	<path class="st0" d="M50.53,17.43c-2.33-0.1-4.32,1.75-4.34,4.15c0.01,2.4,1.95,4.15,4.12,4.17c2.25,0.02,4.17-1.76,4.21-4.09
		C54.56,19.32,52.71,17.52,50.53,17.43z"/>
	<path class="st0" d="M36.02,22.14C28.36,22.12,22.13,28.31,22.12,36c-0.01,7.65,6.21,13.87,13.86,13.87
		c7.6,0,13.87-6.12,13.87-13.87C49.85,28.34,43.67,22.16,36.02,22.14z M46.19,36.03c-0.07,3.23-1.28,5.93-3.73,8.04
		c-1.52,1.3-3.29,2.07-5.29,2.31c-4.16,0.5-8.04-1.64-10.02-5.16c-0.69-1.23-1.14-2.55-1.29-3.96c-0.32-3.09,0.5-5.84,2.54-8.21
		c1.18-1.36,2.63-2.33,4.33-2.93c0.71-0.25,1.43-0.4,2.18-0.49c3.89-0.45,7.65,1.52,9.65,4.71c0.83,1.33,1.35,2.75,1.55,4.3
		C46.16,35.1,46.18,35.56,46.19,36.03z"/>
</g>
</svg>
