<?xml version="1.0" encoding="utf-8"?>
<!-- Generator: Adobe Illustrator 24.2.3, SVG Export Plug-In . SVG Version: 6.00 Build 0)  -->
<svg version="1.1" id="Layer_1" xmlns="http://www.w3.org/2000/svg" xmlns:xlink="http://www.w3.org/1999/xlink" x="0px" y="0px"
	 viewBox="0 0 72 72" style="enable-background:new 0 0 72 72;" xml:space="preserve">
<style type="text/css">
	.st0{fill:#AF997A;}
</style>
<g>
	<path class="st0" d="M66.61,38.39c0-1.06-0.09-2.11-0.33-3.15c-1.81-7.62-9.29-12.18-16.95-10.34c-3.72,0.89-6.77,2.88-9.37,5.62
		c-0.58,0.61-1.12,1.26-1.75,1.97c0-0.27,0-0.43,0-0.6c0-2.28-0.01-4.55,0.01-6.83c0.01-0.46-0.12-0.57-0.58-0.57
		c-4.17,0.02-8.34,0.02-12.51,0c-0.45,0-0.61,0.09-0.61,0.59c0.02,13.67,0.02,27.34,0,41.01c0,0.51,0.17,0.58,0.61,0.58
		c4.15-0.01,8.3-0.02,12.46,0c0.51,0,0.63-0.13,0.62-0.63c-0.02-7.3-0.01-14.59-0.02-21.89c0-0.33,0.08-0.59,0.28-0.86
		c0.74-0.96,1.53-1.89,2.37-2.77c1.39-1.46,2.88-2.82,4.69-3.77c1.35-0.71,2.77-1.15,4.29-0.56c1.35,0.53,2.11,1.64,2.75,2.86
		c0.24,0.46,0.34,0.92,0.34,1.44c-0.01,8.53,0,17.06-0.02,25.59c0,0.46,0.11,0.58,0.57,0.58c4.2-0.02,8.41-0.02,12.61,0
		c0.45,0,0.54-0.14,0.54-0.56C66.61,56.87,66.62,47.63,66.61,38.39z"/>
	<path class="st0" d="M18.53,24.49c-4.2,0.02-8.41,0.02-12.61,0c-0.44,0-0.54,0.13-0.54,0.56c0.01,13.68,0.01,27.37,0,41.05
		c0,0.47,0.13,0.57,0.58,0.57c4.19-0.02,8.37-0.02,12.56,0c0.49,0,0.6-0.14,0.59-0.61c-0.01-6.82-0.01-13.65-0.01-20.47
		c0-6.84-0.01-13.68,0.01-20.53C19.11,24.6,18.98,24.49,18.53,24.49z"/>
	<path class="st0" d="M12.06,18.72c3.69,0.02,6.71-2.95,6.73-6.64c0.03-3.72-2.96-6.74-6.67-6.75C8.41,5.31,5.4,8.31,5.39,12.02
		C5.38,15.7,8.37,18.7,12.06,18.72z"/>
</g>
</svg>
