<?xml version="1.0" encoding="utf-8"?>
<!-- Generator: Adobe Illustrator 24.2.3, SVG Export Plug-In . SVG Version: 6.00 Build 0)  -->
<svg version="1.1" id="Layer_1" xmlns="http://www.w3.org/2000/svg" xmlns:xlink="http://www.w3.org/1999/xlink" x="0px" y="0px"
	 viewBox="0 0 288 288" style="enable-background:new 0 0 288 288;" xml:space="preserve">
<style type="text/css">
	.st0{fill:#AE987A;}
	.st1{clip-path:url(#SVGID_3_);}
	.st2{fill:#FFFFFF;}
	.st3{fill:none;stroke:#000000;stroke-miterlimit:10;}
	.st4{fill:none;stroke:#000000;stroke-width:5;stroke-miterlimit:10;}
</style>
<g>
	<circle class="st0" cx="144" cy="144" r="141.1"/>
	<g>
		<g>
			<circle id="SVGID_1_" class="st0" cx="145.4" cy="144" r="132.2"/>
		</g>
		<g>
			<defs>
				<circle id="SVGID_2_" cx="145.4" cy="144" r="132.2"/>
			</defs>
			<clipPath id="SVGID_3_">
				<use xlink:href="#SVGID_2_"  style="overflow:visible;"/>
			</clipPath>
			<g class="st1">
				<path d="M120.4,186.8c0.3-0.3,0.6-0.7,0.9-1c-3.1-2.6-3.1-3-0.2-5.6c2.5-2.3,5.4-3.7,8.7-4.5c1.2-0.3,3-0.9,3.9-2.7
					c0.4-0.9,2.5-1.1,3.8-1.6c0.1,0.3,0.2,0.5,0.3,0.8c-0.4,0.4-0.7,0.8-1.1,1.3c1.6,0.2,2.8,0.1,3.6-1.5c0.4-0.7,1.5-1.1,2.6-1.8
					c0.1,1.9,0.2,3.3,0.2,4.7c0,0.1,0,0.4-0.1,0.4c-2.4,2.1-4.8,4.2-7.2,6.3c-1.8-1-3.1,0.4-4.6,0.9c-1.1,0.4-2.5,1.3-3.4,1
					c-2.9-1-4.3,0.5-5.7,2.6C121.9,186.4,121,186.5,120.4,186.8L120.4,186.8z"/>
				<path d="M178,186c-0.3-0.3-0.6-0.6-1-0.9c3-2.7,2.9-3.1-0.1-5.6c-2.6-2.2-5.5-3.5-8.9-4.2c-1.2-0.2-3.1-0.8-4-2.6
					c-0.5-0.9-2.6-1-3.9-1.4c-0.1,0.3-0.2,0.5-0.3,0.8c0.4,0.4,0.7,0.8,1.2,1.2c-1.6,0.2-2.8,0.3-3.7-1.3c-0.4-0.7-1.5-1-2.6-1.7
					c0,2-0.1,3.3-0.1,4.7c0,0.1,0,0.4,0.1,0.4c2.5,2,5,4,7.5,6c1.7-1,3.1,0.3,4.6,0.7c1.1,0.3,2.5,1.2,3.4,0.8
					c2.9-1.1,4.3,0.3,5.8,2.3C176.5,185.8,177.4,185.8,178,186L178,186z"/>
				<path d="M120.4,186.7c0.6,1.7,1.9,0.9,2.9,0.8c6-0.5,12.1-0.9,18.1-1.4c2.1-0.1,8.4,0.2,1.6,0.8c-1.1,1.3,4.6-0.6,4.8,1.6
					c-6.6,0.4-21.1,0.5-27.9,0.9C120,188.7,120.2,187.7,120.4,186.7C120.4,186.8,120.4,186.7,120.4,186.7z"/>
				<path d="M147.1,162.6c-2.3,0.1-4.6,0.3-6.9,0.2c-0.6,0-1.1-1-1.6-1.6c0.6-0.3,1.2-0.9,1.9-0.9
					C142.9,160.3,145.2,160.4,147.1,162.6z"/>
				<path d="M178.2,136.6c3.2,0.4,6.3,0.8,9.8,1.2c-0.3,0.9-0.5,1.6-0.6,1.9c-2-0.1-3.7,0.2-5.2-0.3
					C180.7,138.8,179.5,137.5,178.2,136.6C178.2,136.5,178.2,136.6,178.2,136.6z"/>
				<path d="M204.4,123.2c0.9,1.3,0.5,4.2-1.2,7.9C202,129.9,202.5,126.7,204.4,123.2z"/>
				<path d="M170.7,189.5c-3.6-0.4-7.1,0.8-9.4-3C164.4,187.5,167.3,188.4,170.7,189.5z"/>
				<path d="M171.6,132.1c-3.7-1-7.4-2-11.1-3c0.1-0.2,0.1-0.4,0.2-0.6c3.7,1,7.4,2,11.2,2.9C171.7,131.6,171.6,131.9,171.6,132.1z"
					/>
				<path d="M156.8,161.5c1.7-0.4,3.4-0.9,5.1-1.3c0.1,0.3,0.1,0.6,0.2,0.9c-1.6,0.9-3.1,1.8-5,1.4
					C156.9,162.1,156.8,161.8,156.8,161.5z"/>
				<path d="M185.3,148c3.2,0,3.3-0.1,1.6-4.6c0.9,1.2,1.8,2.4,2.8,3.8C188.5,148.2,187.1,148.6,185.3,148
					C185.3,148,185.3,148,185.3,148z"/>
				<path d="M182.7,128.1c2.7-1.4,2.9,1,3.9,1.8C185.5,129.4,184.3,128.9,182.7,128.1z"/>
				<path class="st2" d="M150.1,116.1c0.2,0.9,0.4,1.8,0.4,2.7c0,0.1-0.9,0.2-1.4,0.4c0-1-0.1-2-0.1-2.9
					C149.4,116.2,149.8,116.2,150.1,116.1z"/>
				<path d="M150.6,185.7c3.4,0.6,9.7,1.4,10.5,1.6c0.8,0.2,0.4,1.2,1.1,1.5s0.2,0.6-0.4,0.5s2.3,0.3-2.4-0.4s-5.4-1-8.1-1.3
					s-2.9-1.4-2.8-1.7C148.8,185.7,150.6,185.7,150.6,185.7z"/>
				<path d="M98.7,63.5c0.4-0.9,0.9-1.7,1.5-2.6c-0.1,0.1-0.2,0.1-0.3,0.2c-0.8,1.1-1.4,2-1.3,2.3C98.6,63.4,98.7,63.4,98.7,63.5z"
					/>
				<g>
					<path d="M98.7,63.5c0.4-0.9,0.9-1.7,1.5-2.6c-0.1,0.1-0.2,0.1-0.3,0.2c-0.8,1.1-1.4,2-1.3,2.3C98.6,63.4,98.7,63.4,98.7,63.5z"
						/>
					<path d="M289.5,350.5c-6-3.6-10.2-9.1-15.3-13.8c-3.8-3.4-6-7.5-7.3-12.4c-0.4-1.6-0.9-3.2-1.4-4.7c-1.6-5-1.9-10-0.2-15
						c0.9-2.5,1.5-5.1,2.3-7.6c-0.1,0-0.2-0.1-0.3-0.1c-0.5,1.1-1,2.3-1.5,3.4c-0.3,0-0.3,0-0.6-0.1c-0.1-0.9-0.2-1.7-0.4-2.9
						c-3.2,1.4-4.7-1.4-6.5-3c-1.7-1.6-5.6-1.4-4.7-5.2c-0.9-0.3-1.7-0.5-2.6-0.8c0.5-0.6,0.8-1,1.2-1.5c-1.1-0.4-2-0.7-3.2-1.1
						c1.2-0.6,1.9-1,2.7-1.4c-0.1-0.4-0.1-0.3-0.2-0.7c-0.8,0-1.7-0.1-2.5-0.1c-1.6,0-3.1-1.6-2.9-2.9c0.2-1.1,0.3-2.3,0.2-3.5
						c-0.1-0.8-0.6-1.6-0.9-2.5c-0.1,0.8-0.2,1.6-0.4,2.5c0,0.1-0.2,0.2-0.9,0.6c-0.3-1.5-0.5-2.8-0.8-4.3c1.3-0.3,2.4-0.6,3.5-0.8
						c0.1-0.2,0.1-0.5,0.2-0.7c-4.1,0.1-5.6-2.3-5.9-6c-0.5,0.8-0.8,1.3-1,1.6c-1.4-0.6-2.6-1.2-4.3-2c1.5-0.5,2.5-0.9,3.5-1.2
						c0.2-1,0.4-1.9,0.6-2.9c-0.1-0.1-0.3-0.1-0.4-0.2c-0.6,0.9-1.2,1.7-2.2,3.3c-1.7-3.1-3.1-5.7-4.6-8.6c-0.1,2.3-0.1,4.4-0.2,6.5
						c-0.3,0.1-0.3,0.1-0.6,0.2c-1.1-1.5-2.2-3-3.7-4.9c-0.6,2-1.2,3.7-1.8,5.7c-1.3-2.2,1.5-5.3-2.1-6.8c0.8-0.5,1.5-0.9,2.2-1.3
						c-1.9-0.5-2.1-0.4-2.8,1.2c-1.1,2.3-2,4.6-3.1,6.9c-0.4,0.9-1,1.8-1.6,2.5c-0.3,0.3-1.2,0.5-1.5,0.2c-0.7-0.5-1.5-1.3-1.7-2.1
						c-1.1-3.7-2.1-7.4-3-11.1c-0.4-1.5-0.4-3.1-0.8-4.5c-0.9-3-0.6-5.8,1.4-8.3c0.3-0.4,0.5-1,0.4-1.4c-0.6-2.6-1.2-5.1-1.8-7.7
						c0.5-0.3,1-0.5,1.5-0.8c-1.8-0.5-3.4-0.8-5.1-0.6c-5.1,0.5-10.1,1.2-15.1,1.9c-0.9,0.1-1.9-0.3-2.6,0c-2.2,0.9-3.9,0.6-5.9-2
						c1.9,0.1,3.4,0.1,5.3,0.2c-0.5-1-1-1.9-1.4-2.7c-0.1-0.1-0.3-0.3-0.4-0.4c-0.9-0.5-1.9-1-2.9-1.5l-0.2,1.9
						c-1.3-0.6-2.8-2-3.8-1.7c-1.7,0.6-3.4,1.9-3.1,4.1c-0.8-0.4-1.6-0.9-2.2-1.2c-0.3-1.6-0.6-3.4-0.9-5.2
						c-0.3,0.1-0.6,0.1-0.9,0.2c0.2,1.3,0.4,2.6,0.7,4.1c-0.8-0.4-1.3-0.7-2-1.1c-0.3,0.9-0.5,1.5-0.8,2.4c-0.7-0.7-1.2-1.2-1.8-1.7
						c-0.1,0.1-0.2,0.1-0.2,0.2c0.5,1,0.9,2,1.4,3c-0.1,0.1-0.3,0.1-0.5,0.2c-1.3-2.4-2.6-4.8-3.8-7.1c-2.6,0.3-3.3,5.4-6.6,2.3
						c-0.3,0.8-0.6,1.4-0.8,2.1c-0.6-0.3-1.2-0.6-1.5-0.7c-0.8,1.2-1.5,2.5-2.4,3.9c-2.7-3.6-4.1-0.3-6.1,0.6
						c-0.6-0.5-1.1-1.1-1.4-1.3c-2,0-3.6,0-5,0c-0.6-1.3-0.9-2.5-1.5-3.4c-1.8-2.4-3.7-4.8-5.7-7.3c-0.6-0.2-1.7-0.6-2.8-0.7
						c-1.8-0.1-3.1-0.9-4.3-2.3c-0.6-0.7-1.6-1.1-2.6-1.4c-1.7-0.5-3.3-1-4.9-2.9c1.1,0.1,1.6,0.2,2.1,0.3c0.1-0.2,0.1-0.4,0.2-0.6
						c-1.1-0.4-2.2-1.3-3.2-1.1c-1.5,0.3-2,0-2.5-1.4c-0.4-1-1.4-2.4-2.3-2.5c-0.9-0.1-2.1,1-2.9,1.8c-1.1,1.1-1.7,2.9-3,3.7
						c-1.5,0.9-1.6,1.7-0.7,3.2c-0.9-0.1-1.8-0.1-2-0.5c-0.8-2.1-2.8-3-4.2-4.5c-2.3-2.3-4.5-4.8-6.3-7.4c-4-6-5.8-12.7-6.7-19.8
						c-0.3-2.6-1.1-5.2-1.2-7.8c0.6-1.7,0.9-3.6,0.8-4.7c-0.2-1.9-0.9-3.4-1.2-6.2c-0.3-2.9-0.9-7.8-1.1-9.5
						c-0.1-0.5-0.2-1.3-0.3-2.1c0.4-4.4,0.8-8.9,1.4-13.3c0.2-1.7,0.9-3.4,1.8-4.8c0.5-0.8,1.9-1.1,3.1-1.7c0.5,1.5,1,3.3,1.6,5.1
						c3.3,9.6,6,12.9,16.2,13.2c6.7,0.2,13.3-0.4,19.7-2.1c1.6-0.4,3-1.3,4.4-2.1c0.7-0.4,1.4-0.8,2.1-1.3c0.5-0.3,0.9-0.7,1.7-1.2
						c-0.9-0.2-1.4-0.3-2-0.4c0.8-1.7,1.6-3.3,2.3-4.9c2.1-4.7,5.1-9.2,5-14.6c0-2,0.5-2.9,2.3-3.3c3.4-0.6,4.8-0.1,5.6,2.2
						c0.4,1,0.3,2.2,0.8,3.1c2.4,5.3,4.7,10.7,7.5,15.9c1.1,2,3.1,4,5.2,5c4.8,2.4,10.1,2.2,15.4,1.5c-2.8-0.3-5.6-0.7-8.5-1
						c1.4-0.2,2.6-0.1,4,0c1.3,0.1,2.6,0.1,3.9,0.1c1.5-0.1,2.9-0.3,4.4-0.5h0c-1.3-0.5-2.9-0.7-3.7-1.7c-1.6-1.9,1-3,1.6-4.8
						c-0.7-0.5-1.5-0.9-2.1-1.6c-1-1.1-1.9-2.3-2.9-3.4v0c-0.6-0.4-1.2-0.8-1.7-1.2c-1.5-1.4-5-2.6-6.3-2.1
						c-1.3,0.4-2.7,0.6-4.1,0.8c-1,0.1-2.1,0-3.3,0c0.9,0.9,1.5,1.6,2.2,2.3c-0.2,0.1-0.3,0.3-0.5,0.4c-1.1-1.5-3.8-1.4-3.2-4.4
						c0.4-2.2-0.3-2.6-2.7-2.2c0.2,0.8,0.3,1.6,0.5,2.4c-0.6-0.2-0.9-0.5-0.9-0.8c-0.2-1.9-0.2-3.8-0.6-5.6
						c-0.5-2.3,0.2-7.6,0.9-7.3c3.2,1.1,4.1-2.9,6.8-2.6c0.1,0,0.3,0.1,0.5,0.1c2.8,0,5.6,0.3,8.3,0c4.4-0.5,8.6-0.4,12.8,1.3
						c0.7,0.3,1.6,0.5,2.4,0.6c0.6,0.1,1.2-0.1,1.9-0.2c0,0.7-0.1,1.3-0.1,2.1c0.6,0.1,1.3,0.2,2.6,0.4c-1.7-2.8-3.1-5.2-4.5-7.7
						c3.8-0.9,6.3,1.4,5.4,5.5c-0.1,0.6,0,1.2,0.1,1.8c0.5,2.5,1.1,5,1.6,7.3c0.6-0.5,1.5-1.4,2.7-2.4c0.1,1.2,0.3,2,0.3,2.8
						c0,0.8-0.2,1.7-0.3,2.5c-0.1,0.5-0.2,1-0.4,1.4c0.2,0,0.5,0.1,0.7,0.1c1.3-5.8,1.9-11.5-1-17.1c1.7-0.3,1.7-0.3,2.2,1.8
						c1.7,0.8,3.2,1.5,4.7,2.2c0.1-1.1,0.2-2,0.4-2.9c0.5-3.1,0-4.2-3.1-4.8c-6.4-1.2-12.9-2.5-19.4-3.3c-8.5-1.1-16.6-0.3-24.3,4.1
						c-1.5,0.8-3.6,0.7-5.4,0.8c-2.8,0.1-5.7-0.3-8.5,0.1c-2.4,0.3-4.6,0.1-6.7-1c-4.3-2.2-8.9-3.9-13.8-3.8
						c-5.9,0.1-11.9,0.5-17.8,1c-3.6,0.3-7.2,1.1-10.9,1.7c0-0.1-0.1-0.3-0.1-0.4c0.9-0.3,1.9-0.7,2.8-1c-1.6-1.8-0.8-4.1-0.1-5
						c1.9-2.6,1.6-5.7,2.4-8.2c0.8-0.1,1.5-0.1,2.2-0.1c-0.2-0.7-0.4-1.3-0.5-1.7c0.5-1.2,1-2.3,1.4-3.5c0.5-0.5,1.5-1.1,1.5-1.7
						c0-1.9,0.9-2.8,2.7-3.2c-0.2-0.6-0.4-1.1-0.7-1.7c1-0.7,2-1.5,3-2.3c0.8-0.6,1.6-1.3,2.2-2c1.5-1.8,2.4-4.4,5.6-4.2
						c0.4,0,0.8-1.1,1.3-1.7c0.3-0.4,0.7-0.9,1.2-1.2c0.5-0.2,1.2-0.2,1.7-0.4c1.1-0.5,2-1.2,3.1-1.5c3.4-1.1,7-1.7,10.3-3.2
						c2.2-1,4-1.2,6.2-0.4c0.2,0.1,0.6-0.1,0.9-0.2c1.1-0.3,2.3-0.8,3.4-0.7c2,0.2,4.3,1.7,5.9,1.1c2.8-1.1,4.6,1.1,6.9,1.3
						c3.4,0.3,6.7,1.8,10.1,2.8c1.3,0.4,2.9,0.3,4,1.1c2.1,1.4,4.1,3,5.9,4.8c6.1,6,9.1,13.7,12,21.5c0.7,1.9,2.1,3.8,2,5.7
						c-0.1,2.1,1.3,2.5,2.4,3.1c0.6,0.3,2.6-0.7,2.6-1c-0.2-2.1-0.8-4.2-1.1-6.4c-0.1-0.7-0.2-1.4-0.1-2.1c0-0.8,0.2-1.6,0.2-2.4
						s-0.2-1.6-0.3-2.4c0.7,0,1.5,0,2.2,0.1c1.3,0.2,2.2,0.5,2.2-1.5c0-0.9,1.2-2,2-2.8c0.4-0.4,1-0.6,1.5-0.7
						c2.4-2.2-4.9-8.3-1.7-7.9c0.4-0.2,2.2-2.1,2.8-2.2c0.8-0.1,1.2-0.8,1.7-1.5c0.5-0.7,1.6-1.7,1.6-2.2l7.2-17.2
						c-0.7,0.1-1.4,0.1-2.1,0.3c-0.2,0.1-0.4,0.6-0.6,0.7c-0.8,0.2-1.8,0.6-2.5,0.4c-0.6-0.2-0.9-1.2-1.4-2.1c0.8-0.2,1-0.4,1.2-0.3
						c1.1,0.3,2.3,0.2,2.1-1.2c-0.1-0.8,2.7-2.3,1.1-1.4c-0.4,0.2-1,0-1.5-0.2c-1.7-0.6-3.4-1.2-5-1.9c-0.6-0.3-1.1-0.9-1.7-1.3
						c0.1-0.2,0.3-0.3,0.4-0.5c1.1,0,2.1,0,3.2,0c-2.7-1.2-5.4-3.3-8.4-0.7c0.2-0.7,0.5-1,0.7-1.4c0.5-0.8,0.9-1.5,1.3-2.3
						c-0.8-0.4-1.5-0.9-2.2-1.1c-1.3-0.3-2.8-0.3-4.1-0.7c-0.5-0.1-1.1-1.1-1-1.6c0.5-2.4-0.9-3.9-2.6-4.6c-1.8-0.8-3.9-1-5.8-0.9
						c-2.8,0-5.5,0.5-8.3,0.8c-0.2,0-0.3-0.2-0.6-0.4c0.5-0.2,0.9-0.4,1.3-0.6c-5.1-3.5-10.6-2.1-16.4-1.2c0.7-0.9,1.1-1.3,1.7-2.1
						c-4.2,0-7.9,0-11.9,0c0.6-0.8,0.9-1.3,1.6-2.2c-1-0.1-1.8-0.5-2.3-0.2c-1.2,0.6-2.2,1.5-3.4,2.2c-0.9,0.5-2.1,1.3-2.7-0.1
						c-0.7-1.7-1.8-1.1-2.8-0.7c-2.1,0.9-4.1,1.9-6.1,2.9c-0.1-0.1-0.2-0.2-0.3-0.3c1.3-1.8,2.6-3.6,4.4-5.9c-2,0.6-3.2,1-4.6,1.3
						c0.3-1.2,0.6-2.2,0.9-3.1c-1.6,0.4-2.9,0.7-4.1,1c-0.2-0.3-0.4-0.5-0.6-0.8c-1.6,2.5-3.2,4.9-4.8,7.5c-0.8-0.8-1.4-1.3-2-1.9
						c-0.6,1.4-1.1,2.7-1.6,3.9c-0.2-0.1-0.4-0.2-0.6-0.2c0.2-0.8,0.3-1.6,0.5-2.5c-0.9-0.6-1.9-1.1-3.2-2c0.8,1.9,1.4,3.2,2,4.5
						c-0.4,0.2-0.7,0.3-1.1,0.5c-0.3-0.7-0.6-1.6-1.1-2.2c-0.2-0.3-0.5-0.5-0.8-0.7c-0.2,0.1-0.4,0.3-0.6,0.4c-2.2,1.2-5.3,1-5.3,1
						s-4.6,1.5-3.1,2.4c1.6,0.9,3.5,4.5,2.9,5.3s-2.8,0.6-2.8,0.6s-4.2-2.9-4.9-2.1s-2.3,1.2-2.8,3.2s1.2,6.6,1.2,6.6
						s-0.1,3.5-0.3,4c-0.1,0.3-0.8,0.8-1.3,1.2c0.5,2.2,0.2,4.4-1.3,6.3c-0.1-0.9-0.2-1.5-0.3-2.1c-0.2,0-0.3-0.1-0.5-0.1
						c-0.9,3.8-1.8,7.6-2.7,11.4c-0.2-0.6-0.3-1.1-0.4-1.7c-0.3,0.3-0.8,0.7-1.2,1c0,1.1,0.1,2.1,0.1,3.3c-0.7-0.4-1.2-0.7-2.1-1.2
						c0.2,1.1,0.4,1.9,0.6,3.1c0,0-0.5,0.5-1,0.5c-2.2,0-3.3,1.4-2.5,3.5c0.3,0.7,0.6,1.5,1,2.6c-1.2-0.2-2-0.2-2.8-0.3
						c0.6,2.4,0.6,2.4-2.5,6.2c0.5,0.3,1,0.6,1.5,0.9c-5.9,11.5-8.4,23.6-7.3,36.1c0.8-1.9,1.8-4.2,2.7-6.5c0.2,0,0.4,0.1,0.7,0.1
						c0.2,0.6,0.4,1.2,0.6,1.9c-0.7-0.2-1.1-0.3-1.7-0.4c0.1,1.7,0.2,3.1,0.3,4.5c0.2,0.1,0.4,0.1,0.6,0.2c0.9-1.3,1.7-2.6,2.6-3.9
						c0.1,1.1-0.4,1.9-0.7,2.7c-1,2.6-2,5.2-3,7.8c-0.3,0.8-0.4,1.6-0.5,2.4c-0.2,1-0.6,2.2-0.3,3.1c1.1,3.2,1.1,3.6-1.5,4.7
						c-0.9,0.1-1.9,0.8-2.2,2.1c-0.4,2.1-1.3,12.1,1.2,16.6c2.5,4.4,1.6,9.4,4.3,14.7c0.5,1,0.8,1.9,1,2.6c-0.6,1.5-1.1,3-1.7,4.6
						c-0.3,0.8,0.5,1.6,1.3,1.3c2.2-0.7,3.3-1.4,3.8-2.1c-0.2,2.4-1.5,4.4-3.3,5.2c0.6,0,1.2,0.1,1.8,0.1c1.7,0,3,1.4,2.6,2.9
						c-0.5,1.9-1,3.8-1.8,5.6c5.9,14.3,5.9,29.9,5.2,32.7c-0.7,3-0.4,5.6-4.7,10.4s2.4,3.7-19,7.4c-21.4,3.7-55.2,4.6-61.2,9.8
						c-2.8,2.4-6.1,5.8-10.8,9.3c0,0,0,0,0,0c-3,2.1-8.6,5.6-10.9,7.1c0,0,0-0.1,0-0.1c-1.8,1-3.7,1.9-5.8,2.9
						c-0.7,3.9-1.3,7.7-2,11.5c-0.5,2.9-1,5.8-1.4,8.7c-3.2,26.6-6.4,53.1-9.6,79.7c-0.1,0.7-0.1,1.4-0.2,2.1
						c4.6,0.6,9.2,0.9,13.7,1.7c5.1,0.9,9.7,3.1,14.5,5c4.8,1.9,9.2,4.2,13,7.5c4.5,3.9,8.8,8.3,12.7,12.8
						c4.5,5.3,5.3,11.5,2.7,18.1c-0.8,2.1-1.4,4.3-2.1,6.6l30.7,3.7c0.2-4.5,0.3-9,0.5-13.5c-3.1,1.5-5,5.2-4,6.1
						c-0.7,1.9-1.3,3.5-1.9,4.8c-2.8-5.7,1.2-11.9,6.2-15.5c0.7-0.5,1.1-1.3,1.5-2.1c0.9-2,1.7-4.1,2.4-6.3c0.4-1.2,0.8-2.5,1.2-3.7
						c0.1-0.4,0.5-0.7,0.5-1c-1.2-6.6,1.2-12,5.2-17.1c0.6-0.8,0.8-1.9,1.2-2.9c-0.2-0.1-0.5-0.2-0.7-0.4c-0.5,0.5-0.9,1-1.5,1.6
						c-1.1-2-0.1-3.2,0.9-4l-1-7.9c-1.7,1.4-3.5,2.5-5.7,0.8c1.6-3.4,1-8.6,6.9-10.5c-0.1,1.9-0.2,3.6-0.3,5.4c2-0.9,2-2.1,1.7-3.6
						c-0.5-3.2-1.4-6.4-1.2-9.6c0.6-7.4,2.9-14.2,9.4-18.8c0.6-0.4,1.7-0.1,2.8-0.2c1.7-3.4,4.4-4.2,8.5-2.5c1.2,0.5,2.6,0.8,4,1.1
						s2.7,0.7,3.9,1.1l-0.4,3.2c1.4-1,5.1-1.2,5.9-0.2c1.3,1.6,2.3,3.5,3.6,5.3c-0.1-3.6-0.2-7.2-0.3-11.3c4.4,0.5,8.5,0.9,12.7,1.3
						c0.4,0,0.8,0.1,1.1,0c3.9-1.7,6.2-1.1,8.6,2.3c0.5,0.7,0.9,1.4,1.7,2.6c-0.1-3.2-0.2-5.9-0.3-8.6c0.1,0,0.2-0.1,0.3-0.1
						c0.2,0.4,0.4,0.8,0.6,1.5c1.6-2.6,4-2.1,6.3-1.9c4.4,0.5,8.7,1,13.1,1.6c0.5,0.1,1.1,0.6,1.3,1c0.5,1.6,0.8,3.3,1.4,5.6
						c-4.9-0.3-9.4-0.5-14.1-0.8c0.2,2.8,0.4,5.4,0.7,8c0.1,0.4,1,0.9,1.5,0.9c3.6-0.1,7.1-0.3,10.7-0.5c1.5-0.1,2.2,0.1,2.4,1.8
						c0.9,6.1,1,6.1-5.3,6.5c-2.9,0.2-5.7,0.4-8.9,0.7c0.2,3.2,0.4,6.3,0.6,9.7c4.1-0.4,7.8-0.6,11.6-1.1c0.8-0.1,1.7-1,2.1-1.8
						c1-2.4,1.9-4.9,2.5-7.5c0.4-2,1.6-2.6,3.3-2.8c1.1-0.1,2.1-0.4,3.2-0.6c-1.1-2.5-2.7-4.8-2.9-7.2c-0.2-2.4,0.9-5,1.6-8.2
						c3,4.4,5.6,8.3,8.1,12.2c2.5,3.9,5,7.8,8,11.6c-0.5-2.2-1-4.5-1.5-6.7c-1.5-6-2.9-12-4.4-18c-0.3-1.3-0.3-3.1-1.2-3.7
						c-0.7-0.5-2.4,0.4-3.7,0.6c-1.1,0.2-2.2,0.3-4.2,0.5c1.3-2.8,2.3-5,3.4-7.1c0.1-0.3,0.6-0.4,1-0.5c2.1-0.5,4.3-1,6.4-1.5
						c0.4,1.8,0.6,3.8,1.2,5.5c0.6,1.4,1.7,2.7,2.8,3.9c1.2,1.4,1.3,2.5-0.6,3.4c-0.3,0.1-0.5,0.5-1.4,1.5c5.6-2,5.5,1.8,6.2,4.5
						c1.1,4.5,2,9.1,3,13.6c0.2,1.1,0.4,2.2,0.9,3.1c0.8,1.6,0.4,2.6-1.3,2.7c-2.1,0.2-3.8,1.5-6.3,1c-2.7-0.5-2.5-1.9-3-3.5
						c-0.9,1.7,0.1,3.3,0.8,5c-1.1,0.3-2.1,0.8-3,0.8c-0.9,0-2.1-0.4-2.6-1.1c-1.2-1.5-2-3.3-3.1-4.9c-0.3-0.4-1-0.9-1.4-0.9
						c-2.5,0.4-5,0.8-7.5,1.5c-0.7,0.2-1.4,0.9-1.7,1.6c-1.2,2.9-2.2,5.9-3.4,9.2c1.1-0.3,2.1-0.6,3.4-1c0.3,0.6,0.6,1.3,0.9,2
						c2.1-4.9,7-3.3,10.7-4.5c2.1-0.7,4.5-0.6,6.9-0.9c0.2,0.6,0.4,1.2,0.6,1.8c0.1-0.1,0.4-0.1,0.4-0.2c0-1.9,1.6-2,2.8-2
						c3.8,0.2,7.2,1.4,8.6,5.5c0.1,0.2,0.2,0.4,0.7,0.6c-0.1-0.9-0.2-1.8-0.4-2.7c-0.2-0.9-0.5-1.8-0.7-2.7c-1-4-0.8-4.4,3.1-5.7
						c2.8-0.9,2.9-1.2,1.7-4c-3.2-0.2-3.6-0.6-3.8-4.1c0.5,0.6,0.8,1,1.2,1.4c2.4-1.7,1.4-3.9,1-5.9c-0.2-1.1-1.2-1.4-2-0.3
						c-0.6,0.8-1.1,1.8-1.8,2.9c-0.1-3.7,0.3-4.3,3.9-5.6c-1.5-5.7-3.1-11.5-4.6-17.4c-2.1,0.5-4.2,1-6.6,1.6
						c-0.5-1.9-1-3.6-1.3-5.4c-0.1-0.5,0.4-1.4,0.8-1.6c1.9-0.6,3.8-2.6,5.8-0.1c0.1,0.1,0.7,0,0.9,0c0.5,1.5,0.9,2.9,1.4,4.3
						c0.2,0,0.4-0.1,0.6-0.1c0.1-0.6,0.1-1.2,0.2-1.3c1.3-0.2,2.6,0,3.2-0.6c1.5-1.5-0.1-2.2-1.3-3.1c-0.2,0.6-0.3,1-0.4,1.5
						c-1.2-1-0.7-3.3,1-4c1.8-0.7,3.7-1.2,5.5-1.8c2.7-0.9,5.4-1.8,8.3-2.8c0.4,1.6,0.8,3.1,1.1,4.7c0.1,0.5-0.2,1.3-0.6,1.5
						c-2.9,1.4-5.8,2.8-8.8,4.1c-0.5,0.2-1.3-0.2-2.6-0.5c0.9,3.3,1.8,6.3,2.7,9.5c1.7-0.8,3.3-1.5,5-2.2c0.5,1.7,0.8,3.2,1.3,4.5
						c0.5,1.4,0,2-1.2,2.5c-0.4,0.1-0.7,0.3-1.1,0.4c-2.1,0.6-3.3,1.8-2.6,4.2c0.2,0.9,0.1,1.9,0.1,2.8c0.2,3,0.7,3.3,3.7,1.7
						c-0.6-0.3-1.2-0.6-2.2-1.2c1.3-0.4,2.2-0.6,2.6-0.7c1.5-1.5,2.7-2.6,3.9-3.8c0.3,0.2,0.2,0.1,0.5,0.4c-0.6,1.3-1.2,2.7-2.2,4.7
						c2.1-0.9,3.7-1.5,5.1-2.2c1.8-0.9,3.1-0.7,3.5,1.6c0.2,1,0.8,2,1.2,3c0.6,1.4,0.4,2-1.4,2.5c-4,1.1-7.9,2.8-11.9,4.2
						c0.1,0.3,0.2,0.7,0.3,1c1.4-0.4,2.8-0.8,4.2-1c0.7-0.1,1.8-0.1,2,0.2c0.9,1.8,1.4,3.7,2.2,5.8c-3.7,1.3-7.1,2.6-10.7,3.6
						c-2.2,0.6-3.1,1.7-2.4,4c0.3,1,0.4,2,0.6,2.9c0.7,3.4,0.7,3.4,4.1,2.1c3-1.1,5.9-2.3,9-2.9c2.2-0.5,4.6-0.1,7-0.2
						c0,0.3,0,0.6,0,0.9c-0.8,0.2-1.6,0.4-2.6,0.7c0.3,0.7,0.6,1.3,0.9,2c-0.6,0.2-1.1,0.4-1.6,0.5c0.1,1.4,0.1,2.6,0.2,4.4
						c1.6-0.1,3.5-0.2,5.3-0.4c-1.5,1.1-2.4,3.6-5,1.3c-1.1-0.9-3.4-1.4-5.4-0.4c-1.3,0.6-2.8,0.8-4.2,1.3c-1.4,0.5-2.7,0.9-3.2-1.4
						c-0.2,0.1-0.5,0.2-0.7,0.3c-0.1,1.1-0.5,2.3-0.4,3.4c0.4,2.3,1.2,4.6,1.7,6.9c0.2,1.3,0,2.6-0.1,4.6c1.4,0.8,3.6,1.9,5.8,3.1
						c-0.1,0.2-0.3,0.5-0.4,0.7c-0.7-0.4-1.3-0.9-2.4-1.6c0.6,1.1,0.9,1.9,1.5,2.9c-2.4,0.7-4.7,1.3-7,1.9c-2.9,0.8-5.8,1.5-8.8,2.2
						c-0.6,0.1-1.6,0-2-0.4c-4.3-4.6-8.5-9.2-12.7-13.9c-0.3-0.4-0.6-0.9-1-1.6c1.5-0.7,2.9-1.3,4.3-2c3.1-1.5,4.3-4.3,3.8-8.7
						c-0.3-2.7-2.3-4.9-5.3-5.5c-0.8-0.1-1.7,0.3-2.6,0.5c-1,0.2-2,0.5-2.9,0.7c-1,0.2-1.9,0.5-3.2,0.9c2.2,9.8,4.4,19.5,6.8,29.7
						c-0.7-0.6-1-0.9-1.5-1.3c-1.6,1.6-0.6,3.5-0.5,5.5c-1.7,0.4-3.5,0.7-5.8,1.2c-0.2-2.7-0.3-5.2-0.6-7.7c-0.3-2.7,0.8-5.7-2-8
						c-0.9-0.7-0.7-2.8-0.7-4.5c0.6,0.9,1.2,1.9,1.8,2.8c0.2-0.1,0.3-0.1,0.5-0.2c-0.6-1.7-0.9-3.8-2-5c-1.9-2.2-2.6-4.6-3.1-7.3
						c-0.3-1.6-0.6-3.2-1-4.8c-0.1-0.4-0.6-0.8-0.9-1.1c-0.2,0.5-0.6,1-0.5,1.5c0.3,2.4,0.8,4.7,1.1,7.1c0.2,1,0.3,1.8-1.4,1.7
						c-0.6,0-1.4,1.4-2.3,2.4c0.1,0.4,0.1,1.3,0.3,2.3c0.8,0,1.5,0,2.6,0c-0.6,3.5-1.2,6.8-1.9,10.4c1,1,1.1,3.9-0.9,6.2
						c-0.9-4.7-1.9-9.5-2.8-14c-1.1,1.9-1.9,4.2-3.4,5.8c-1.6,1.7-3.9,2.9-6,4.1c-1.9,1.1-3.3,2.3-3.5,4.7c-0.2,2.5-1,5-1.7,7.5
						c-0.4,1.4-1.2,2.7-1.9,4.2c-0.1-0.1,0,0.1,0.1,0.1c2.6-0.3,3.6,0.8,3.2,3.4c-0.1,1,0.2,2,0.4,3.3c-6.2,1-11.1,4.7-14.5,10
						c-1.5,2.2-1.4,5.5-2.1,8.5l6,0.7c0.6-1.5,1.1-2.8,1.7-4.2c0.2,0.1,0.5,0.1,0.7,0.2c-0.3,1.3-0.6,2.7-0.9,4.1
						c0.4,0.1,0.9,0.2,1.6,0.3c0-1.1-0.1-2.1-0.1-3.1c0.2,0,0.4-0.1,0.6-0.1c0.2,1,0.4,1.9,0.5,2.6c1.7,0.5,3.2,1,4.7,1.4
						c0.5-0.7,0.9-1.3,1.7-2.4c0,1.2-0.1,1.8-0.1,2.9c1.5-0.5,2.9-1,4.2-1.5c-0.3-0.6-0.6-1.2-0.9-1.7c0.8-1.1,1.8-2.4,2.6-3.5
						c-0.1,1-0.1,2.5-0.3,4.3c4.6-1.4,2.7-5.6,4.1-7.9c-0.9-1.7-1.6-3.3-2.6-4.7c-1.3-1.8-2.7-3.8-4.4-5.2c-1.6-1.3-1.1-2.6-0.9-4.1
						c0.2-1,0.5-1.9,0.9-3.4c0.4,0.4,1,0.8,1.3,1.3c0.6,1.1,0.1,3,2.2,2.9c0.1,0,0.4,1.2,0.4,1.8c0,0.5-0.3,1.1-0.5,1.9
						c1.1-0.1,1.8-0.2,2.8-0.4c-0.5-1.7-0.9-3.3-1.3-4.8c0.2-0.1,0.5-0.1,0.8-0.2c0.1,0.6,0.3,1.2,0.5,2.1c0.9-0.4,1.6-0.6,2.9-1.2
						c1.8,3.2,3.7,6.6,5.6,9.9c-0.5-2.6-0.9-5.3-1.4-8c-0.5-2.6,0.5-3.7,3.2-3.5c1,0.1,2-0.2,3-0.5c1.3-0.4,2-0.1,2.2,1.4
						c0.9,6.1,2,12.2,2.9,18.3c0.2,1.5,0.1,3,0.1,5.3c3-0.6,5.7-1.2,8.4-1.8c0.5-0.1,1-0.4,1.5-0.6c3.9-1.3,4-1.2,4.3,3
						c0.1,1.4-0.3,2.2-1.8,2.5c-1.1,0.2-2.1,0.5-3.2,0.8c-1.1,0.2-2.1,0.5-3.7,0.8c17.1,2,33.8,4,50.5,6.1c0.2-0.6,0.4-1.2,0.6-1.8
						c0.2,2.1,1.7,2.3,3.3,2.4c4.9,0.5,9.9,1.4,14.8,1.6c2,0.1,4.1-1.3,5.9-2c-1.6-4.7-0.5-8.8,0.1-12.8c0.7,2.9,1.3,5.7,2.1,8.8
						c3.6-3,3.3-6.1,1.4-9.5c0.9,1.7,1.5,3,3.5,1.5c-0.4-1.4-0.8-2.8-1.3-4.5c1,0.5,1.7,1.1,2.3,1.1c0.5,0,0.9-1,1.4-1.5
						c0.6-0.5,1.5-0.9,2-1.5c1.2-1.5,2.3-3.2,3.2-4.5c-0.3-1.8-0.6-3.5-0.9-5.1c-0.1,0.1-0.3,0.4-0.9,1.4c0-1.5,0-2.4,0.1-3.9
						c-1.5,2.5-2.6,4.5-3.9,6.5c-0.4,0.5-1.1,0.9-1.4,1.4c-0.7,1.1-1.2,2.3-1.6,3.6c-0.6,1.1-1.2,2.2-2,3.6c-0.2-1.2-0.3-2-0.4-2.9
						c-0.1,0-0.3,0-0.4-0.1c-0.2,0.9-0.2,1.8-0.5,2.5c-0.3,0.8-0.8,1.5-1.8,2.1c2-4.1,1-8.1,0.9-12.3c0.3,0.9,0.6,1.8,1.2,3.2
						c-0.1-2.2-0.2-3.8-0.3-5.3c0.3,0,0.6,0,0.9,0c0.1,2.5,0.3,5,0.4,7.8c1.8-3.2,3.6-6.3,5.4-9.4c0.1,0.1,0.4,0.3,0.7,0.6
						c0.1-0.1,0.2-0.2,0.2-0.4c-0.3-2.2-1.3-4.5,0.9-6.4c0.2-0.2,0.2-0.7,0.3-1.1c0.6-4.3,1.6-8.7,1.6-13c0-3.4-1.2-6.9-1.8-10.3
						c-0.2-1.2-0.4-2.4-0.6-3.5c0.3-0.1,0.6-0.1,0.8-0.2c0.4,1.5,0.9,3,1.2,4.5c0.7,3.8,1.7,7.5,3.2,11.2c1.3,3.3,3.3,6.2,4,9.8
						c0.6,2.9,0.3,5.8,1.3,8.7c1,3,1.2,6.2,1.8,9.3c0.2,0.9,0.6,1.8,0.9,2.8c0.1,0.3,0.3,0.6,0.3,0.8c-0.6,3.6-1.5,7.1-1.9,10.7
						c-0.5,3.9-0.5,7.8-0.7,11.5l16.9,2c-1.4-7-2.8-13.6-4.1-20.2c0.2,0,0.5-0.1,0.8-0.1c0.3,1.9,0.6,3.8,1,5.6c1,4.5,2,8.9,3,13.4
						c0.3,1.5,1,2,2.5,2.1c3.1,0.3,6.2,0.7,9.2,1.1l12.1-101.2C301.6,357.6,295.5,354.2,289.5,350.5z M171.6,144.6
						c0.9-0.9,2.1-1.7,3.3-2.1c0.4-0.1,1.4,0.9,1.9,1.6c0.6,0.9,1,2,1.5,3c-0.2,0.2-0.3,0.5-0.5,0.7c-1.8-0.4-3.7-0.7-5.4-1.3
						C171.9,146.4,171.4,144.8,171.6,144.6z M150.1,116.1c0.2,0.9,0.4,1.8,0.4,2.7c0,0.1-0.9,0.2-1.4,0.4c0-1-0.1-2-0.1-2.9
						C149.4,116.2,149.8,116.2,150.1,116.1z M123.3,132.9c-0.1,0.7-1.6,1.4-2.5,1.7c-0.4,0.1-1.6-0.8-1.7-1.3
						c-0.2-1.1,0.2-2.3,0.4-3.8c2.8,0.5,5.4,0.9,8,1.3c0,0,0,0,0,0C125.9,131,123.8,129.9,123.3,132.9z M100,118.4
						c3.2-1.3,6.6-2.5,10.3-1.8c0-0.3,0.1-0.7,0.2-1.2c0.3,0.2,0.6,0.3,0.7,0.4c0.6,1.8,1.9,2.1,3.6,2.2c3.7,0.2,7.4,0.6,11.2,0.9
						c1.3,0.1,2.9,0.7,3.4-1.3c0.1-0.3,0.8-0.7,1.1-0.6c2.7,0.5,5.6,0.6,8,1.8c1.2,0.6,1.9,3.1,2.1,4.8c0.2,2-0.2,4.2-0.6,6.2
						c-0.4,2.4-3.3,4.3-6.4,4.6c-1.3,0.1-2.6,0-3.9,0.2c-2.1,0.3-3-0.2-2.3-2.5c0.1-0.4,0.1-0.9,0.2-1.3c3.1,0.6,6.2,1.1,9.3,1.7
						c0.1-0.2,0.1-0.3,0.1-0.5c-0.7-0.2-1.4-0.5-2.2-0.6c-4.6-0.8-9.2-1.5-13.7-2.4c-0.8-0.1-1.4-1-2.4-1.8
						c-0.2,1.8-0.3,3.7-0.7,5.6c-0.1,0.6-1.1,1.4-1.6,1.4c-4.9-1-9.8-2.2-14.7-3.3c-0.3-0.1-0.6-0.4-1.3-0.9
						c1.2-0.3,2.1-0.5,3.3-0.8c-0.7-0.9-1.4-1.6-1.8-2.4c-1.1-1.9-2.3-3.8-3.1-5.8C98.5,120.3,99.3,118.7,100,118.4z M88,178.2
						c0.1-0.2,0.2-0.3,0.3-0.5c0.4,0.9,0.7,1.8,0.8,2.7C88.7,179.7,88.1,178.9,88,178.2z M175,327c-0.8,0.4-1.5,0.8-2.3,1.2
						c-0.3-1.8-0.6-3.7-0.9-5.7c0.3-0.1,0.7-0.1,1-0.2C173.6,323.8,174.3,325.4,175,327z M183.8,246.6c-0.2-0.6-0.5-1.2-0.7-1.8
						c-0.2,0.1-0.3,0.2-0.5,0.3c-0.4,3.1-0.4,6.3-1.2,9.3c-3.5,13.3-12.5,21.4-25.5,24.6c-6.1,1.5-12.6,1.6-18.9,2
						c-2.1,0.1-4.4-0.8-6.6-1.4c-4-1-8.1-1.8-11.6-4.2c-1.6-1.1-3-2.4-4.5-3.6c-5.2-4.3-10.9-12.4-12.1-17.4c0.6,0.4,1,0.8,1.4,1.1
						c0.1-0.1,0.2-0.1,0.4-0.2c-0.2-0.4-0.2-0.9-0.4-1.2c-1.8-2.4-1.6-5,0.9-6.5c0.7-0.4,1.8-0.2,3.5-0.6c-0.7-0.4-1.5-0.8-2.6-1.3
						c1.4-0.5,2.1-0.8,2.7-1c0.7,0.7,1.4,1.4,2,2.1c0.6,0.7,1,1.6,1.3,2.1c1.6,0.4,3.1,0.8,4.6,1.2c1.3-1.8,1.9-1.8,4-0.2
						c1.1,0.8,2.2,1.9,4.1,1.4c1.1-0.3,2.5,0.9,3.9,1.5c-0.2,0.5-0.4,0.9-0.4,0.9c2.4,0.5,4.7,0.9,7,1.4c0-0.2-0.1-0.6-0.1-1.2
						c1.4,0.6,2.8,0.9,3.9,1.6c3.8,2.3,7.6,1.8,11.1-0.3c2.1-1.2,4-2.9,6-4.3c0.5-0.4,1.1-0.5,1.9-0.3c-0.4,0.4-0.9,0.7-1.3,1.1
						c2.5,1.9,4,1.7,5.3-0.6c1.7,1.1,3.6,0.7,5.8-1c0.7-0.5,1.5-0.8,2.3-1.1c2.1-0.9,4.8-0.8,6.2-3c0.3-0.4,0.2-1,0.4-1.6
						c-1.4,0.6-2.5,1.1-3.6,1.6c-0.2,0.1-0.7-0.4-0.7-0.4c0.2-0.6,0.3-1.4,0.7-1.6c1.2-0.5,2.6-0.6,2.4-2.5c0-0.3,1.7-0.7,2.6-0.9
						c0.8-0.2,1.6-0.1,2.6-0.1c-1.3-0.8-2.2-1.4-3.5-2.2c1.6-1,3.8,0.8,4-1.5c-1.5-0.7-2.8-1.4-4.5-2.2c1.7,0,2.9,0,4.3-0.1
						c0.2-1,0.3-1.8,0.5-2.8c0.8,2.2,1.4,0.4,2.3-0.6c0.1,3.7,0.3,6.8,0.4,9.9c-0.1,0-0.2,0-0.3,0.1c-0.1-0.3-0.2-0.6-0.3-0.9
						c0.4,1.3-2.8,3.2,0.7,4C184.3,244.1,184.1,245.6,183.8,246.6z M202.4,283.2c-1.1-2.3-2.7-4.2-2.9-6.3
						c-0.7-5.4-3.4-10.9,0.2-16.5C203,265.4,204.7,278.9,202.4,283.2z M127.6,434.2c-0.2,0-0.3,0-0.4,0c0-2,0-3.9-0.1-5.9
						c0.4,0,0.8,0,1.2,0C128.1,430.3,127.9,432.2,127.6,434.2z M134.1,440c-0.4-1.8-0.6-3-0.8-4.1c2.6-0.5,1.1-2.5,1.6-3.7
						C136.2,433.9,136.1,437,134.1,440z M154.1,414.2c-1.2,0.1-2.6,0.4-2.9-1.7c0.4,0.1,0.7,0.2,1.1,0.3c0.2-0.8,0.4-1.6,0.6-2.4
						c0.2-0.1,0.4-0.2,0.6-0.3c0.6,0.9,1.4,1.8,1.8,2.9C155.4,413.2,154.5,414.1,154.1,414.2z M157.2,391.8
						c-0.6-2.1-1.1-4.3-1.7-6.5c0.2-0.1,0.5-0.2,0.7-0.3c0.6,2.2,1.3,4.3,1.9,6.5C157.8,391.6,157.5,391.7,157.2,391.8z
						 M228.3,395.8c-0.6,2.2-1.1,4.5-3,6.1c-0.2-0.1-0.4-0.2-0.6-0.3c0.8-1.6,1.6-3.2,2.4-4.8c1.3-2.6,1.3-2.7-1.2-3.8
						c-0.2-0.1-0.3-0.5-0.7-1C228.4,392.4,229,393.2,228.3,395.8z M219.3,328.8c1.1,0,2.3-0.1,3.3,0.2c0.5,0.2,0.8,1.2,1.2,1.9
						c-0.7,0.1-1.5,0.4-2.1,0.2c-1-0.3-1.9-0.9-2.8-1.3C219.1,329.4,219.2,329.1,219.3,328.8z M222,338.9c-1.4,0.4-2.6,0.7-4.2,1.2
						C219.4,337.3,220.7,337,222,338.9z M208.1,314.1c1.7,0.6,3.4,1.2,5.7,2c0.1,0.4,0.4,1.4,0.6,2.2c-0.1,0.1-0.3,0.2-0.5,0.3
						c-2.1-1.4-4.1-2.7-6.2-4.1C207.9,314.3,208,314.2,208.1,314.1z M202.5,326.1c0.3,1.2,0.5,2.3,0.8,3.4c-0.2,0.1-0.3,0.2-0.5,0.2
						c-0.6-0.7-1.1-1.4-1.7-2.1c-0.2,0.1-0.3,0.1-0.5,0.2c0.2,1,0.1,2.1,0.6,2.9c1.4,2.1,0.3,2.8-1.6,3.3
						C198.5,328.8,199,327.5,202.5,326.1z M204.8,335.4c0.5,0.4,0.9,0.7,1.3,1c-0.1,0.2-0.1,0.3-0.1,0.3c-2.1,0.2-4.1,0.3-6.3,0.5
						c1.9-2.6,4.7-3.6,8-3.9C206.8,334,205.9,334.7,204.8,335.4z M209.2,320c1.1,0.7,2,1.8,3.1,2c1,0.2,2.2-0.5,3.7-0.8
						c-0.5,1.6-0.8,2.5-1.1,3.5C211.9,324.5,209.7,322.8,209.2,320z M212.1,348.2c-0.9-2.8-1.7-5.2-2.5-7.6
						c-0.1-0.1-0.1-0.4-0.1-0.4c1.7-0.8,3.5-1.7,5.3-2.2c0.5-0.2,1.6,0.4,1.9,1c0.7,1.6,1.2,3.3,1.8,5c1.7-0.3,2.4-3,4.4-1.8
						c0.7,0.5,1.1,1.5,1.5,2c-1.5,0.3-2.8,0.5-4,0.9C217.7,346,215.2,347.1,212.1,348.2z M188.1,440.2c-0.8,2.4-3.4,2.5-5.5,2.7
						c-0.8,0-2-1.4-2.6-2.4c-2-3.2-3.9-6.5-5.8-9.8c-0.2-0.4-0.3-0.9-0.3-0.9c1-1.2,2.6-2.3,2.5-3.2c-0.1-2.4-2.6-1.1-4.2-2.2
						c0.7-0.1,1.4-0.3,2.3-0.5c-1.4-1.3-2.3-2-3.3-2.9c-0.4,0.4-0.9,0.9-1.9,1.8c-1.8-4.5-3.5-8.8-5.2-13.3c1.9-0.5,3.5-1.2,5-1.1
						c1.2,0.1,2.8,0.9,3.3,1.9c4,7.1,7.9,14.4,11.7,21.6c0.3,0.5-0.1,1.3,0.2,1.8c0.4,0.7,0.9,1.4,1.5,1.8c0.6,0.4,2,0.2,2.1,0.5
						C188.1,437.3,188.5,438.9,188.1,440.2z M224.4,430.4c-5.3,1.6-10.7,3-16,4.5c-0.2,0-0.4-0.1-0.4-0.1c-1.4-4.1-2.7-8.1-4.1-12.1
						c-0.8,0.1-1.3,0.2-2.1,0.4c-0.2-1.5-0.4-2.9-0.6-4.2c-0.3-1.9,0.5-2.4,2.4-1.5c0.3-0.7,0.5-1.4,0.8-2.1
						c-1.3,0.1-2.3,0.2-3.4,0.3c0-0.2,0.1-0.3,0.1-0.5c1-0.8,1.9-1.6,2.9-2.5c0.2-0.2,0.3-0.6,0.2-0.9c-0.8-2.2-1.6-4.5-2.5-6.8
						c-1.1,1.8,1.6,3.8-1,5.4c-0.2-1.9-0.5-3.8-0.8-6.3c-0.3,1.1-0.4,1.5-0.6,2c-1.8,4.6-2.1,9.6-4.3,14.1
						c-1.6,3.2-1.6,7.2-2.5,10.8c-0.4,1.7-1.3,3.3-2,4.9c-1.7-1.7-3.3-2.8-4.3-4.3c-1.6-2.5-1.1-5.6,0.3-7.7
						c3.6-5.4,3.9-11.4,4.2-17.4c0.1-2.6,0.8-4.1,3.6-4.6c2.9-0.6,5.8-1.8,8.7-2.5c2.9-0.7,5.8-1.2,8.8-1.8c-0.8-1.3,2-3,0.1-4.7
						c-1.2-1.1-1.7-3.4-4.3-2.7c1.1-2.6-0.9-3.3-2.5-3.6c-1.5-0.2-3.1,0.3-5.1,0.2c1.1-0.9,2-2.3,3.2-2.6c1-0.3,2.6,0.4,3.4,1.2
						c1.3,1.2,2.2,2.4,4.1,1.1c0.2-0.1,1.1,0.5,1.5,0.9c0.9,1.1,1.6,2.3,2.4,3.5c0.2-0.1,0.5-0.2,0.7-0.3c-0.2-1.3-0.3-2.6-0.7-3.9
						c-0.6-2.2-0.1-3.7,2.1-4.6c0.6-0.2,1.2-0.6,2.3-1.1c0.7,2.5,1.5,4.9,1.9,7.3c0.1,0.5-0.8,1.5-1.4,1.9c-1,0.7-2.2,1-3.3,1.6
						c-0.3,0.2-0.5,0.6-1.2,1.3c3.7-1,4.1-0.8,4.5,2.5c0.6,4.1,0.6,4-3.2,5.9c-1.9,0.9-3.7,2-5.6,2.7c-2.2,0.8-2.7,2.4-2.5,4.3
						c0.1,1.4,0.4,2.7,0.7,4.1c4.7,0,7.8-3.2,11.7-5.5c0.4,2.5,1.2,4.7,0.9,6.6c-0.2,1.3-2,2.6-3.4,3.4c-2.5,1.3-5.3,2.1-8.2,3.1
						c0.3,2.6,0.7,5.3,1.1,8.6c4.6-2,8.8-3.7,13.3-5.6c0.3,1.8,0.7,3.5,0.9,5.3C225.4,429.1,224.9,430.2,224.4,430.4z M226.9,428.5
						c-0.3-2.4-0.8-4.7-0.9-7c0-0.6,1.2-1.3,1.9-1.7c1-0.6,2.1-1,3.3-1.5C233.4,424.6,233.6,426.8,226.9,428.5z M270.3,345.9
						c-0.5,0.9-1,1.8-1.9,3.3c-0.1-1.9-0.2-3.3-0.2-5C269.2,345,269.8,345.6,270.3,345.9z M254.4,396.7c-0.3,0-0.6,0-0.9,0
						c0-1.5-0.1-3.1-0.1-4.6C256,393.5,253.7,395.1,254.4,396.7z M232.5,449.8c1.1-1.1,1.8-1.8,3.1-3c0,1.5,0.1,2.4,0.1,3.4
						C234.7,450.1,233.8,450,232.5,449.8z M243.7,410.9c0.3-0.1,0.6-0.2,0.9-0.3c0.8,1.8,1.6,3.6,2.4,5.4c-0.3,0.1-0.5,0.2-0.8,0.3
						C245.3,414.5,244.5,412.7,243.7,410.9z M243.7,422c0.6,2.5,1.2,4.6,1.9,7.1C243.2,427.7,242.5,424.8,243.7,422z M247.1,386.8
						c2.3-0.1,5,2.2,4.7,4.2C250.1,389.5,248.7,388.2,247.1,386.8z M252.3,420.9c-0.3-1.9-0.5-3.8-0.8-5.8c2.4,1.6,1.1,3.7,1.5,5.6
						C252.8,420.8,252.5,420.8,252.3,420.9z M254.6,415.2c-1.2-4.3-2.4-8.9-3.8-13.8C255.5,405.4,255.6,410.3,254.6,415.2z
						 M262,384.5c0-3.8-1.6-7.3-0.3-11.1C264.2,376.4,264.5,382.5,262,384.5z M276.5,425.9c-1.7-6.7-3.4-13.4-5.2-20.3
						c-0.5,0.3-0.8,0.5-1.4,0.8c0-0.9,0-1.6,0-2.4c0.5,0.1,1,0.1,1.4,0.2c-0.2-1.9-0.3-3.6-0.5-5.4c-0.2-1.6-0.3-3.3-2.5-3.8
						c0.5-0.2,1-0.5,2.1-1c-4.9-2.1-2.6-6-2.7-9.7c0,0,0.6-0.4,1.2-0.7c-0.2-0.3-0.4-0.5-0.5-0.5c-2.4-0.4-4.4-3.7-3.4-5.9
						c0.1-0.3,0.7-0.7,0.8-0.6c0.5,0.3,1,0.8,1.3,1.2c-1.2-3.9-2.4-7.9-3.6-12.1c0.3-0.2,0.7-0.6,0.8-0.7c-0.4-2.1-0.8-4-1.2-6.1
						c-0.4,0.5-0.7,0.9-1.1,1.3c-0.5-4.8-0.9-9.3-1.3-13.9c0.2,0,0.4,0,0.6-0.1c7.4,26,11.2,52.8,15.9,79.4
						C276.8,425.8,276.7,425.9,276.5,425.9z"/>
				</g>
				<path d="M212.8,230c3.8,1.6,27.5-1.7,35.1,6.1c7.7,7.8,9,7.5,12,17.2c3,9.7,6.9,26.5,7.7,31.2s-4.6,14.9-7.4,15.9
					c-2.8,1-25.9,2.6-25.9,2.6l-27.3-7.7c0,0-11.1-12-12.1-17.1s-0.9-26.7-0.9-26.7l7.4-15.2"/>
			</g>
		</g>
	</g>
	<g>
		<path class="st3" d="M230.6,244.1c-23.2,20.1-53.5,32.2-86.6,32.2c-12.8,0-25.2-1.8-37-5.2"/>
		<path class="st3" d="M272,177.6c-5.8,22-17,41.7-32.2,57.7"/>
		<path class="st3" d="M272,110.2c2.9,10.8,4.4,22.2,4.4,33.8c0,8.4-0.8,16.7-2.3,24.7"/>
		<path class="st3" d="M131.6,12.2c4.1-0.4,8.2-0.6,12.4-0.6c59.4,0,109.6,39.1,126.4,92.9"/>
		<path class="st3" d="M27.2,206.2c-9.9-18.5-15.5-39.7-15.5-62.2C11.7,76.7,62,21.1,127.1,12.8"/>
		<path class="st3" d="M99.5,268.6c-29-10.4-53.3-30.5-68.9-56.5"/>
	</g>
	<circle class="st4" cx="144" cy="144" r="141"/>
</g>
</svg>
